<svg width="172" height="40" viewBox="0 0 172 40" fill="none" xmlns="http://www.w3.org/2000/svg">
    <path d="M23.6982 29.239H18.2815V25.4016H7.41665V29.239H2V20.7272H3.98077C5.28134 18.6223 5.83747 15.0319 5.99311 11.1933L6.05514 9.61523H21.0677V20.7272H23.6993V29.239H23.6982ZM15.1863 20.7272V14.2886H11.2247C11.2247 14.4431 11.1627 15.0624 11.1627 15.1864C10.9461 17.5394 10.4509 19.4582 9.73916 20.7272H15.1874H15.1863Z" fill="#540575"/>
    <path d="M25.3086 17.5078C25.3086 11.9671 29.1776 9.21143 35.2451 9.21143C41.3126 9.21143 45.1805 11.8735 45.1805 17.5078C45.1805 23.1421 41.5901 25.8031 35.2451 25.8031C28.9001 25.8031 25.3086 23.3272 25.3086 17.5078ZM39.0826 17.5078C39.0826 14.7532 37.8136 13.6388 35.2451 13.6388C32.6766 13.6388 31.4065 14.7837 31.4065 17.5078C31.4065 20.2319 32.9237 21.3769 35.2451 21.3769C37.7831 21.3769 39.0826 20.2004 39.0826 17.5078Z" fill="#540575"/>
    <path d="M51.4339 12.9889C52.4243 11.5338 54.6532 10.1103 58.4918 10.1103C64.2491 10.1103 67.1898 12.9574 67.1898 17.8484C67.1898 23.5131 62.8255 25.803 57.3468 25.803C52.642 25.803 47.1328 24.2249 47.1328 15.6499C47.1328 5.59042 51.8997 3.54761 58.864 2.99039C62.5785 2.6813 63.878 2.46472 65.3026 2V6.79848C64.2806 7.23163 62.5165 7.60385 59.8544 7.82042C55.0254 8.22202 51.5275 8.87285 51.373 12.99H51.435L51.4339 12.9889ZM57.3458 21.3767C60.0383 21.3767 61.0907 19.7987 61.0907 17.9104C61.0907 16.0221 60.0688 14.5681 57.2837 14.5681C54.4987 14.5681 53.4147 16.1157 53.4147 17.9104C53.4147 19.7051 54.4356 21.3767 57.3458 21.3767Z" fill="#540575"/>
    <path d="M75.5767 31.9007H69.6953V9.61486H75.4221V11.8743H75.4842C76.6291 10.3571 78.4553 9.30469 81.5201 9.30469C86.4111 9.30469 89.2582 11.6261 89.2582 17.3834C89.2582 22.2124 86.7202 25.7103 81.2099 25.7103C78.4553 25.7103 76.5355 24.5643 75.6387 23.5129H75.5767V31.9007ZM83.0993 17.3529C83.0993 14.8465 81.8303 13.7625 79.3227 13.7625C76.8152 13.7625 75.5778 15.1861 75.5778 17.662C75.5778 19.953 76.9708 21.2524 79.4163 21.2524C81.8618 21.2524 83.0993 20.0455 83.0993 17.3518V17.3529Z" fill="#540575"/>
    <path d="M91.0547 17.5078C91.0547 11.9671 94.9237 9.21143 100.991 9.21143C107.059 9.21143 110.927 11.8735 110.927 17.5078C110.927 23.1421 107.336 25.8031 100.991 25.8031C94.6462 25.8031 91.0547 23.3272 91.0547 17.5078ZM104.829 17.5078C104.829 14.7532 103.56 13.6388 100.991 13.6388C98.4227 13.6388 97.1526 14.7837 97.1526 17.5078C97.1526 20.2319 98.6698 21.3769 100.991 21.3769C103.529 21.3769 104.829 20.2004 104.829 17.5078Z" fill="#540575"/>
    <path d="M116.71 25.8346C114.45 25.8346 112.965 24.5656 112.965 22.6153C112.965 20.665 114.296 19.396 116.71 19.396C119.124 19.396 120.579 20.6966 120.579 22.6153C120.579 24.534 119.186 25.8346 116.71 25.8346Z" fill="#540575"/>
    <path d="M129.553 31.9007H123.672V9.61486H129.399V11.8743H129.461C130.606 10.3571 132.432 9.30469 135.497 9.30469C140.388 9.30469 143.235 11.6261 143.235 17.3834C143.235 22.2124 140.697 25.7103 135.186 25.7103C132.432 25.7103 130.512 24.5643 129.615 23.5129H129.553V31.9007ZM137.075 17.3529C137.075 14.8465 135.806 13.7625 133.298 13.7625C130.791 13.7625 129.553 15.1861 129.553 17.662C129.553 19.953 130.946 21.2524 133.391 21.2524C135.835 21.2524 137.075 20.0455 137.075 17.3518V17.3529Z" fill="#540575"/>
    <path d="M155.183 25.5864C154.564 25.68 153.976 25.7104 153.327 25.7104C148.776 25.7104 145.031 23.9462 145.031 17.5392C145.031 11.1322 148.87 9.30593 153.327 9.30593C154.1 9.30593 154.626 9.3375 155.183 9.42892V2.18604H161.065V9.42892C161.714 9.33641 162.303 9.30593 162.984 9.30593C167.627 9.30593 171.218 11.0397 171.218 17.4151C171.218 23.7906 167.287 25.7115 162.86 25.7115C162.117 25.7115 161.591 25.6495 161.065 25.5874V31.902H155.183V25.5874V25.5864ZM155.183 13.7627C154.967 13.7311 154.688 13.7311 154.347 13.7311C152.305 13.7311 151.221 14.5985 151.221 17.5076C151.221 20.4168 152.273 21.2842 154.47 21.2842C154.719 21.2842 154.966 21.2842 155.182 21.2526V13.7616L155.183 13.7627ZM161.064 21.2537C161.28 21.2853 161.559 21.2853 161.899 21.2853C163.942 21.2853 165.057 20.3558 165.057 17.4467C165.057 14.5376 164.035 13.7322 161.775 13.7322C161.527 13.7322 161.311 13.7638 161.064 13.7638V21.2548V21.2537Z" fill="#540575"/>
    <path d="M53.8496 29.7385C52.4696 28.2791 50.6782 28.3106 48.9271 29.9508C48.9271 29.9508 48.9271 29.9486 48.926 29.9475L46.2182 32.6553L43.5104 29.9475C43.5104 29.9475 43.5104 29.9497 43.5094 29.9508C41.7571 28.3095 39.9657 28.278 38.5868 29.7385C37.3015 31.099 37.4408 32.9404 38.8981 34.4608C38.8981 34.463 39.5358 35.1062 39.7492 35.3195C41.5329 37.1087 43.8772 38.0001 46.2182 38.0001C48.5603 38.0001 50.9035 37.1087 52.6873 35.3195C52.9006 35.1051 53.5395 34.4619 53.5384 34.4608C54.9957 32.9415 55.135 31.099 53.8496 29.7385Z" fill="#FF6614"/>
</svg>