<svg xmlns:xlink="http://www.w3.org/1999/xlink" width="150" height="48" viewBox="0 0 150 48" fill="none" xmlns="http://www.w3.org/2000/svg">
<g clip-path="url(#clip0_2001_1996)" fill="none">
<path d="M23.3673 46.5887H0.624512V1.41455H23.3673C23.3673 16.2538 23.3673 31.0914 23.3673 45.9306C23.3673 46.1494 23.3673 46.3699 23.3673 46.5887Z" fill="#56774A"></path>
<path d="M45.986 1.41455H23.2432V46.5887H45.986V1.41455Z" fill="#FEFEFE"></path>
<path d="M39.1127 36.2593C42.3623 34.891 43.4855 32.2768 43.4855 32.2768C41.2277 31.7657 38.4863 30.4104 38.4863 30.4104C41.3605 29.9124 43.2346 27.2999 43.2346 27.2999C39.7357 25.6817 37.8403 20.1987 37.8616 20.0827C37.8567 20.086 37.8616 20.0762 37.8616 20.0827C38.0404 19.9341 43.1165 15.2642 38.829 10.8474C35.112 7.01675 31.905 9.7142 29.9227 10.6825C28.4258 9.93627 26.2369 9.24721 23.3643 9.37947L23.3086 46.9642H42.2738C41.859 37.2569 39.234 36.3866 39.1094 36.2625L39.1127 36.2593Z" fill="#770F10"></path>
<path d="M15.4614 29.9809C9.6687 34.8239 6.81744 40.1878 6.9978 46.0905L23.3675 46.5885V28.4199C23.3675 28.4199 15.9106 29.9809 15.4614 29.9809Z" fill="#FEFEFE"></path>
<path d="M23.3674 9.37939C23.3674 9.37939 17.7436 9.62759 14.371 12.7381C14.371 12.7381 7.74863 7.88698 5.12364 12.116C2.50029 16.3451 9.12261 19.2058 9.12261 19.2058L5.12364 20.9464C5.12364 20.9464 6.2484 21.9408 7.62238 22.0666L4.50879 24.7003C4.50879 24.7003 6.62387 30.2765 14.9956 31.5207C14.9956 31.5207 15.6203 36.5482 23.3674 36.2478V9.37939Z" fill="#FEFEFE"></path>
<path d="M20.5932 21.8395L20.2292 20.143C18.0288 19.792 15.9826 19.3854 14.184 18.8906L13.9741 19.2792L19.5783 20.8941L20.5932 21.8379V21.8395Z" fill="#780E0E"></path>
<path d="M19.4946 25.3974C19.4946 27.4238 22.3672 25.5574 22.7033 26.5404L23.3674 28.668V23.8152C23.3674 23.8152 19.4963 23.6862 19.4946 25.3974Z" fill="#770F10"></path>
<path d="M27.2404 25.3974C27.2404 27.4238 24.3678 25.5574 24.0317 26.5404L23.3677 28.668V23.8152C23.3677 23.8152 27.2388 23.6862 27.2404 25.3974Z" fill="#FEFEFE"></path>
<path d="M23.5313 29.3393C21.5819 31.0587 19.1749 31.3249 16.8418 30.2048L17.1468 29.6137C19.2618 30.8399 21.4966 30.7093 23.4526 29.2397L23.5297 29.3377L23.5313 29.3393Z" fill="#780E0E"></path>
<path d="M23.2809 29.2412C25.2385 30.7108 27.4733 30.8398 29.5867 29.6151L29.8917 30.2062C28.2734 30.9916 26.2895 31.1663 24.663 30.3189C24.1318 30.056 23.6465 29.718 23.2021 29.3408L23.2792 29.2428L23.2809 29.2412Z" fill="#FEFEFE"></path>
<path d="M4.50879 24.7071L10.8983 23.7144L7.06164 28.0724C5.75324 26.9817 4.92033 25.8599 4.50879 24.7071Z" fill="#770F10"></path>
<path d="M8.95215 29.4568L12.4953 26.8018L11.7099 30.7369C10.6459 30.4642 9.72276 30.0397 8.95215 29.4568Z" fill="#770F10"></path>
<path d="M17.3683 10.826L20.5918 17.519L21.1509 9.66992C19.7031 9.92628 18.4193 10.2953 17.3667 10.826H17.3683Z" fill="#770F10"></path>
<path d="M28.6159 21.8251C28.9609 21.8251 29.2406 21.3514 29.2406 20.7671C29.2406 20.1827 28.9609 19.709 28.6159 19.709C28.2709 19.709 27.9912 20.1827 27.9912 20.7671C27.9912 21.3514 28.2709 21.8251 28.6159 21.8251Z" fill="#FEFEFE"></path>
<path d="M25.8779 19.0509C27.5487 18.2459 29.4522 17.7479 31.323 18.1512L31.1574 18.7782C29.4588 18.2361 27.5864 18.5529 25.9271 19.1652L25.8779 19.0509Z" fill="#FEFEFE"></path>
<path d="M23.2428 46.5884L23.2658 36.3521C26.0006 33.6122 30.826 35.374 35.2381 32.5264C34.5495 37.2714 24.8972 36.3227 23.8052 46.5884H23.2412H23.2428Z" fill="#FEFEFE"></path>
<path d="M23.3676 29.3066C23.2643 29.3638 23.2151 29.4209 23.1807 29.4781H23.3676V29.3099" fill="#780E0E"></path>
<path d="M45.9855 1.41455H0.624512V46.5854H45.9855V1.41455Z" stroke="#56774A" stroke-miterlimit="10" fill="none"></path>
<path d="M7.80456 40.4247C9.33102 40.3202 10.9919 40.4524 12.7447 40.7398C11.1264 42.1865 9.2556 43.0634 7.13232 43.3671C7.27825 42.3335 7.4914 41.3456 7.80292 40.4263L7.80456 40.4247Z" fill="#770F10"></path>
<path d="M14.9961 31.395C15.3339 34.4844 18.4327 36.0731 23.0383 36.1352L14.9961 31.395Z" fill="#FEFEFE"></path>
<path d="M15.1727 31.3755C15.3039 32.8646 16.2335 34.086 17.5173 34.8093C19.1881 35.7482 21.1441 36.0062 23.0378 36.0732L23.0362 36.1973C22.1787 36.1891 21.3195 36.1352 20.4686 36.0046C17.8633 35.6307 15.1547 34.2917 14.8169 31.4147L15.171 31.3755H15.1727Z" fill="#770F10"></path>
<path d="M10.4658 35.2554C12.476 35.5999 15.0616 36.6204 17.744 37.7536C13.95 39.1105 10.6478 39.535 8.23926 39.2428C8.77704 37.8924 9.54438 36.5665 10.4658 35.2554Z" fill="#770F10"></path>
<path d="M57.9335 7.44125C59.4338 7.44125 60.6241 7.58494 61.5062 7.86906C62.3883 8.1548 63.0261 8.65772 63.4229 9.37617C63.818 10.0946 64.0164 11.1102 64.0164 12.4181C64.0164 13.7261 63.7902 14.8201 63.336 15.5303C62.8818 16.2406 62.1211 16.6505 61.0488 16.7615V16.9281C62.3506 17.057 63.2573 17.5502 63.7689 18.4074C64.2788 19.2646 64.5362 20.4583 64.5362 21.9899C64.5362 23.2994 64.3345 24.3134 63.9312 25.0318C63.5262 25.7503 62.8966 26.2532 62.0391 26.5389C61.1816 26.8247 60.0683 26.9667 58.7009 26.9667C57.7122 26.9667 56.817 26.939 56.0185 26.8835C55.2184 26.828 54.4773 26.7267 53.7936 26.5798C53.1099 26.4328 52.4294 26.2483 51.7539 26.0262L52.0999 22.5973C53.2033 22.7818 54.2264 22.9255 55.1659 23.0251C56.1054 23.1263 56.9875 23.1769 57.8122 23.1769C58.3238 23.1769 58.7222 23.1132 59.0108 22.9826C59.2993 22.8536 59.501 22.6332 59.6158 22.3181C59.7305 22.0045 59.7896 21.5539 59.7896 20.9628C59.7896 20.3178 59.7322 19.828 59.6158 19.4965C59.501 19.165 59.2944 18.9299 58.9976 18.7911C58.7009 18.6523 58.2893 18.5837 57.7614 18.5837L54.2002 18.5282V15.1809L57.7122 15.1254C58.1565 15.1074 58.5041 15.047 58.7501 14.9458C58.9976 14.8445 59.1698 14.647 59.2698 14.3514C59.3682 14.0575 59.4174 13.6509 59.4174 13.135C59.4174 12.619 59.3682 12.2222 59.2698 11.9463C59.1714 11.6703 58.9894 11.4809 58.7255 11.3797C58.4615 11.2784 58.0909 11.2278 57.6122 11.2278C56.7055 11.2278 55.8447 11.2605 55.0282 11.3241C54.2117 11.3895 53.3345 11.4858 52.395 11.6148L52.049 8.01928C52.9229 7.81681 53.8083 7.66985 54.7068 7.57678C55.6053 7.48534 56.6809 7.43799 57.9335 7.43799V7.44125Z" fill="#56774A"></path>
<path d="M53.4278 32.3647V39.8774H51.9521V32.3647H53.4278ZM58.4892 32.3647V39.8774H56.9988V32.3647H58.4892ZM53.4278 33.5632H56.9988V32.3647H53.4278V33.5632Z" fill="#56774A"></path>
<path d="M74.08 7.2749C75.4982 7.2749 76.6918 7.43166 77.6658 7.74516C78.638 8.05867 79.43 8.58934 80.0399 9.33555C80.6498 10.0818 81.086 11.0908 81.3499 12.3645C81.6139 13.6364 81.7451 15.2497 81.7451 17.2042C81.7451 19.1587 81.6123 20.7491 81.3499 22.0309C81.086 23.3127 80.6498 24.3266 80.0399 25.0729C79.43 25.8191 78.638 26.3497 77.6658 26.6632C76.6935 26.9767 75.4982 27.1335 74.08 27.1335C72.6617 27.1335 71.4878 26.9767 70.5073 26.6632C69.5268 26.3497 68.73 25.8191 68.1217 25.0729C67.5118 24.3266 67.074 23.3127 66.8116 22.0309C66.5477 20.7491 66.4165 19.1407 66.4165 17.2042C66.4165 15.2677 66.5477 13.6364 66.8116 12.3645C67.0756 11.0925 67.5118 10.0834 68.1217 9.33555C68.7316 8.58934 69.5268 8.05867 70.5073 7.74516C71.4878 7.43166 72.6798 7.2749 74.08 7.2749ZM74.08 11.2296C73.3553 11.2296 72.7896 11.3962 72.3863 11.7277C71.9813 12.0591 71.6976 12.6584 71.5337 13.5254C71.3681 14.3924 71.2861 15.6187 71.2861 17.2042C71.2861 18.7897 71.3681 20.0159 71.5337 20.883C71.6976 21.75 71.9829 22.3493 72.3863 22.6807C72.7896 23.0122 73.3553 23.1788 74.08 23.1788C74.8047 23.1788 75.3703 23.0122 75.7737 22.6807C76.177 22.3493 76.4574 21.75 76.6148 20.883C76.7705 20.0159 76.8492 18.7897 76.8492 17.2042C76.8492 15.6187 76.7705 14.3924 76.6148 13.5254C76.4574 12.6584 76.1787 12.0591 75.7737 11.7277C75.3703 11.3962 74.8047 11.2296 74.08 11.2296Z" fill="#56774A"></path>
<path d="M91.4633 7.2749C92.8815 7.2749 94.0751 7.43166 95.0491 7.74516C96.0213 8.05867 96.8133 8.58934 97.4232 9.33555C98.0331 10.0818 98.4693 11.0908 98.7332 12.3645C98.9972 13.6364 99.1284 15.2497 99.1284 17.2042C99.1284 19.1587 98.9956 20.7491 98.7332 22.0309C98.4693 23.3127 98.0331 24.3266 97.4232 25.0729C96.8133 25.8191 96.0213 26.3497 95.0491 26.6632C94.0768 26.9767 92.8815 27.1335 91.4633 27.1335C90.045 27.1335 88.8711 26.9767 87.8906 26.6632C86.9101 26.3497 86.1133 25.8191 85.505 25.0729C84.8951 24.3266 84.4573 23.3127 84.1949 22.0309C83.931 20.7491 83.7998 19.1407 83.7998 17.2042C83.7998 15.2677 83.931 13.6364 84.1949 12.3645C84.4589 11.0925 84.8951 10.0834 85.505 9.33555C86.1149 8.58934 86.9101 8.05867 87.8906 7.74516C88.8711 7.43166 90.0631 7.2749 91.4633 7.2749ZM91.4633 11.2296C90.7386 11.2296 90.1729 11.3962 89.7696 11.7277C89.3646 12.0591 89.0809 12.6584 88.917 13.5254C88.7514 14.3924 88.6694 15.6187 88.6694 17.2042C88.6694 18.7897 88.7514 20.0159 88.917 20.883C89.0809 21.75 89.3662 22.3493 89.7696 22.6807C90.1729 23.0122 90.7386 23.1788 91.4633 23.1788C92.188 23.1788 92.7536 23.0122 93.157 22.6807C93.5603 22.3493 93.8407 21.75 93.9981 20.883C94.1538 20.0159 94.2325 18.7897 94.2325 17.2042C94.2325 15.6187 94.1538 14.3924 93.9981 13.5254C93.8407 12.6584 93.5619 12.0591 93.157 11.7277C92.7536 11.3962 92.188 11.2296 91.4633 11.2296Z" fill="#56774A"></path>
<path d="M108.673 7.33057C109.53 7.33057 110.26 7.35832 110.862 7.41384C111.463 7.46936 112.016 7.54284 112.517 7.63427C113.021 7.72735 113.536 7.85471 114.064 8.02126L113.718 11.8388C113.157 11.8013 112.637 11.7784 112.16 11.7703C111.681 11.7605 111.171 11.7523 110.627 11.7425C110.083 11.7327 109.432 11.7294 108.674 11.7294C107.999 11.7294 107.466 11.8862 107.079 12.1997C106.692 12.5132 106.423 13.0667 106.276 13.8587C106.128 14.6522 106.053 15.7674 106.053 17.2043C106.053 18.6412 106.126 19.7581 106.276 20.5517C106.423 21.3452 106.692 21.8971 107.079 22.2106C107.466 22.5241 107.997 22.6809 108.674 22.6809C109.878 22.6809 110.88 22.6629 111.678 22.6254C112.478 22.5895 113.282 22.5241 114.088 22.4311L114.434 26.2209C113.609 26.5344 112.765 26.7548 111.899 26.8838C111.034 27.0128 109.958 27.0781 108.673 27.0781C106.843 27.0781 105.38 26.7597 104.283 26.1245C103.187 25.4877 102.396 24.4509 101.909 23.014C101.422 21.5755 101.18 19.6389 101.18 17.206C101.18 14.773 101.422 12.8365 101.909 11.398C102.395 9.95944 103.187 8.92258 104.283 8.28741C105.379 7.6506 106.843 7.33383 108.673 7.33383V7.33057Z" fill="#56774A"></path>
<path d="M125.388 7.66162C125.767 7.66162 126.101 7.78245 126.39 8.02085C126.678 8.26087 126.872 8.59234 126.97 9.01688L131.643 26.7446H126.895L123.903 13.5807C123.837 13.2672 123.78 12.9308 123.729 12.5716C123.68 12.2123 123.63 11.876 123.581 11.5625H122.914C122.881 11.876 122.835 12.2123 122.778 12.5716C122.72 12.9308 122.658 13.2672 122.593 13.5807L119.6 26.7446H114.852L119.525 9.01688C119.623 8.59234 119.817 8.26087 120.105 8.02085C120.394 7.78082 120.727 7.66162 121.107 7.66162H125.385H125.388ZM127.738 18.4759V22.2102H118.761V18.4759H127.738Z" fill="#56774A"></path>
<path d="M149.966 23.2601V26.7446H131.84V23.2601H149.966ZM135.55 26.5519L135.204 30.0136H131.841V26.5519H135.55ZM147.667 7.66162V26.7446H143.043V11.1461H141.461C141.049 11.1461 140.74 11.2653 140.533 11.5053C140.326 11.7454 140.207 12.1144 140.174 12.6124C140.041 14.0689 139.902 15.3556 139.754 16.4708C139.607 17.586 139.433 18.5967 139.234 19.4997C139.036 20.4027 138.797 21.2468 138.518 22.0306C138.238 22.8144 137.903 23.5834 137.516 24.3394C137.129 25.0954 136.672 25.8972 136.144 26.7462H132.337C133.094 25.1248 133.704 23.4822 134.166 21.8232C134.627 20.1643 134.991 18.4906 135.255 16.8039C135.519 15.1172 135.716 13.4337 135.849 11.7568C135.947 10.5583 136.36 9.57694 137.085 8.81114C137.81 8.04697 138.749 7.66325 139.903 7.66325H147.667V7.66162ZM149.967 26.5519V30.0136H146.629L146.283 26.5519H149.967Z" fill="#56774A"></path>
<path d="M62.113 32.3652L62.2851 33.8886L62.395 34.0895V38.9227L62.3163 39.1072C62.3474 39.3945 62.372 39.677 62.3868 39.953C62.4032 40.2306 62.4048 40.5228 62.395 40.8298V42.9394H60.8882V32.3635H62.1113L62.113 32.3652ZM65.3774 32.1807C66.33 32.1807 67.0088 32.5187 67.4171 33.1963C67.8253 33.8739 68.0286 34.8634 68.0286 36.1664C68.0286 37.1412 67.9237 37.9136 67.7155 38.4834C67.5056 39.0533 67.1875 39.4582 66.7579 39.6999C66.3284 39.9416 65.7906 40.0624 65.1413 40.0624C64.6281 40.0624 64.1264 39.9938 63.6345 39.855C63.1426 39.7162 62.677 39.504 62.2376 39.2166L62.331 38.3855C62.7918 38.5193 63.2 38.6271 63.5558 38.7088C63.9116 38.7904 64.2936 38.8312 64.7019 38.8312C65.1315 38.8312 65.4725 38.7594 65.7299 38.6157C65.9857 38.472 66.1726 38.2058 66.2874 37.8156C66.4021 37.4253 66.4595 36.8767 66.4595 36.1681C66.4595 35.4594 66.4071 34.9238 66.3021 34.5287C66.1972 34.1335 66.03 33.8511 65.8004 33.6812C65.5709 33.5114 65.2561 33.4282 64.8593 33.4282C64.4625 33.4282 64.069 33.518 63.6821 33.6976C63.2951 33.8772 62.8508 34.1564 62.3474 34.5369L62.1753 33.6127C62.436 33.3253 62.7426 33.0738 63.0934 32.8583C63.4443 32.6428 63.8181 32.4762 64.2149 32.3586C64.6117 32.2411 65.0003 32.1823 65.3758 32.1823L65.3774 32.1807Z" fill="#56774A"></path>
<path d="M76.9575 32.3647V39.8774H75.5917V35.09C75.5917 34.9152 75.5966 34.7471 75.6081 34.5821C75.6179 34.4189 75.6343 34.2392 75.6556 34.0433H75.6081C75.5458 34.1968 75.4638 34.3584 75.3654 34.5283C75.2654 34.6981 75.1687 34.8434 75.0752 34.9675L71.3566 39.8774H70.0859V32.3647H71.4517V37.1669C71.4517 37.3318 71.4484 37.4951 71.4435 37.66C71.4386 37.825 71.4255 38.0046 71.4042 38.1989H71.4353C71.5189 38.0356 71.6075 37.8739 71.7026 37.7139C71.796 37.5555 71.8911 37.4184 71.9846 37.3057L75.7032 32.3647H76.9591H76.9575Z" fill="#56774A"></path>
<path d="M85.0538 35.2439L85.0374 36.2905L81.4434 36.3052C81.0876 36.315 80.8367 36.4048 80.6908 36.5746C80.5449 36.7445 80.4711 36.9779 80.4711 37.2751V37.7372C80.4711 38.1062 80.5646 38.3757 80.7531 38.5455C80.9417 38.7153 81.2286 38.7986 81.6155 38.7986C81.9074 38.7986 82.2353 38.7447 82.596 38.6369C82.9567 38.5291 83.3207 38.3659 83.6864 38.1438C84.052 37.9234 84.3815 37.6441 84.675 37.3045V38.2744C84.5816 38.4181 84.4291 38.5896 84.2192 38.7904C84.0094 38.9912 83.7569 39.1823 83.4585 39.3684C83.16 39.5529 82.8289 39.7064 82.4616 39.8305C82.096 39.953 81.6975 40.015 81.2696 40.015C80.8089 40.015 80.4039 39.935 80.053 39.7766C79.7021 39.6182 79.43 39.3815 79.2365 39.068C79.043 38.7545 78.9463 38.3724 78.9463 37.9217V37.1053C78.9463 36.5208 79.1365 36.0636 79.5185 35.7354C79.9005 35.4072 80.4318 35.2422 81.1106 35.2422H85.0489L85.0538 35.2439ZM83.0617 32.1807C83.647 32.1807 84.1389 32.2558 84.5373 32.4044C84.9341 32.553 85.2358 32.8077 85.4391 33.1669C85.6424 33.5261 85.7457 34.0192 85.7457 34.6446V39.8779H84.5537L84.3176 38.2467L84.2389 38.0622V34.6446C84.2291 34.2038 84.1209 33.8853 83.9175 33.691C83.7142 33.4967 83.3191 33.3988 82.7338 33.3988C82.3255 33.3988 81.8205 33.42 81.2188 33.4608C80.617 33.5016 80.0235 33.5425 79.4382 33.5833L79.2972 32.5203C79.653 32.4582 80.0497 32.4027 80.4891 32.3505C80.9286 32.2999 81.3729 32.2574 81.8238 32.228C82.273 32.197 82.6862 32.1823 83.0633 32.1823L83.0617 32.1807Z" fill="#56774A"></path>
<path d="M96.8232 32.3647C97.2003 32.3647 97.3872 32.5444 97.3872 32.9036L97.7004 39.8774H96.2887L96.0067 33.4898H95.7558L93.9195 38.5548C93.8768 38.7083 93.8096 38.8275 93.7162 38.9092C93.6227 38.9908 93.4915 39.0316 93.3243 39.0316H92.2733C92.1061 39.0316 91.9782 38.9908 91.8897 38.9092C91.8011 38.8275 91.7306 38.7083 91.6782 38.5548L89.8418 33.4898H89.5909L89.3237 39.8774H87.9268L88.2252 32.9036C88.235 32.5444 88.4285 32.3647 88.8056 32.3647H90.3124C90.4796 32.3647 90.6075 32.4039 90.696 32.4807C90.7846 32.5574 90.8502 32.6783 90.8928 32.8432L92.3684 36.984C92.4422 37.1686 92.5012 37.3482 92.5488 37.5229C92.5963 37.6976 92.6406 37.8772 92.6816 38.0617H92.9177C92.9702 37.8674 93.0193 37.6829 93.0669 37.5082C93.1144 37.3335 93.1685 37.1588 93.2308 36.984L94.7065 32.8432C94.7999 32.5248 95 32.3664 95.3033 32.3664H96.8248L96.8232 32.3647Z" fill="#56774A"></path>
<path d="M100.635 32.3649L102.565 37.83C102.617 37.9835 102.665 38.1403 102.706 38.3003C102.747 38.4587 102.79 38.6203 102.832 38.7852H103.209L102.691 39.8776H102.283C102.147 39.8776 102.034 39.8449 101.945 39.778C101.857 39.7111 101.786 39.6164 101.734 39.4939L99.0186 32.3665H100.635V32.3649ZM106.897 32.3649L103.9 40.2303C103.806 40.4965 103.685 40.7708 103.539 41.0533C103.393 41.3357 103.218 41.6052 103.013 41.8615C102.809 42.1179 102.57 42.3383 102.298 42.5228C101.901 42.789 101.458 42.949 100.971 42.9996C100.484 43.0502 99.9695 43.0404 99.4252 42.9686L99.5498 41.9529C99.9056 41.9627 100.245 41.948 100.57 41.9072C100.894 41.8664 101.181 41.7684 101.432 41.6149C101.652 41.4615 101.85 41.2525 102.029 40.9912C102.206 40.7299 102.358 40.4442 102.485 40.1372L102.877 39.2294C102.96 39.0138 103.044 38.7754 103.127 38.5142C103.211 38.2529 103.29 38.0243 103.363 37.8284L105.262 32.3633H106.894L106.897 32.3649Z" fill="#56774A"></path>
<path d="M109.627 32.3652L109.799 33.8886L109.909 34.0895V38.9227L109.83 39.1072C109.861 39.3945 109.886 39.677 109.9 39.953C109.917 40.2306 109.918 40.5228 109.909 40.8298V42.9394H108.402V32.3635H109.625L109.627 32.3652ZM112.891 32.1807C113.844 32.1807 114.522 32.5187 114.931 33.1963C115.339 33.8739 115.542 34.8634 115.542 36.1664C115.542 37.1412 115.437 37.9136 115.229 38.4834C115.019 39.0533 114.701 39.4582 114.272 39.6999C113.842 39.9416 113.304 40.0624 112.655 40.0624C112.142 40.0624 111.64 39.9938 111.148 39.855C110.656 39.7162 110.191 39.504 109.751 39.2166L109.845 38.3855C110.305 38.5193 110.714 38.6271 111.069 38.7088C111.425 38.7904 111.807 38.8312 112.216 38.8312C112.645 38.8312 112.986 38.7594 113.244 38.6157C113.499 38.472 113.686 38.2058 113.801 37.8156C113.916 37.4253 113.973 36.8767 113.973 36.1681C113.973 35.4594 113.921 34.9238 113.816 34.5287C113.711 34.1335 113.544 33.8511 113.314 33.6812C113.085 33.5114 112.77 33.4282 112.373 33.4282C111.976 33.4282 111.583 33.518 111.196 33.6976C110.809 33.8772 110.364 34.1564 109.861 34.5369L109.689 33.6127C109.95 33.3253 110.256 33.0738 110.607 32.8583C110.958 32.6428 111.332 32.4762 111.729 32.3586C112.125 32.2411 112.514 32.1823 112.889 32.1823L112.891 32.1807Z" fill="#56774A"></path>
<path d="M120.923 32.1807C121.164 32.1807 121.43 32.1905 121.723 32.2117C122.015 32.2329 122.313 32.2689 122.618 32.3195C122.922 32.3717 123.204 32.4485 123.466 32.5497L123.278 33.5033C122.912 33.4723 122.538 33.4494 122.156 33.4347C121.774 33.42 121.448 33.4118 121.176 33.4118C120.6 33.4118 120.139 33.4918 119.795 33.6502C119.449 33.8103 119.202 34.0846 119.049 34.4732C118.897 34.8634 118.821 35.4072 118.821 36.1044C118.821 36.8016 118.897 37.3519 119.049 37.7519C119.2 38.152 119.449 38.4296 119.795 38.583C120.139 38.7365 120.6 38.8133 121.176 38.8133C121.333 38.8133 121.54 38.8084 121.795 38.7986C122.051 38.7888 122.327 38.7725 122.618 38.7529C122.91 38.7316 123.189 38.7022 123.45 38.6598L123.591 39.6444C123.214 39.7881 122.791 39.8926 122.32 39.9595C121.849 40.0265 121.379 40.0591 120.908 40.0591C120.02 40.0591 119.305 39.9301 118.767 39.6738C118.228 39.4174 117.839 39.001 117.598 38.4263C117.357 37.8515 117.237 37.0776 117.237 36.1011C117.237 35.1247 117.357 34.3671 117.598 33.7923C117.839 33.2175 118.228 32.8044 118.767 32.553C119.305 32.3015 120.025 32.1758 120.925 32.1758L120.923 32.1807Z" fill="#56774A"></path>
<path d="M126.887 32.3649V34.535C126.887 34.7717 126.869 35.0101 126.831 35.2501C126.795 35.4918 126.739 35.7204 126.667 35.9359C126.729 36.1613 126.782 36.3882 126.824 36.6136C126.865 36.8389 126.887 37.0495 126.887 37.2455V39.8776H125.365V32.3649H126.887ZM128.298 35.4134V36.5368H126.447V35.4134H128.298ZM131.955 32.3649C131.778 32.827 131.615 33.2417 131.468 33.6124C131.322 33.9814 131.174 34.3047 131.028 34.5823C130.882 34.8599 130.717 35.0901 130.535 35.2746C130.351 35.4591 130.143 35.6077 129.907 35.7204C129.671 35.8331 129.387 35.9049 129.051 35.9359V35.998C129.407 36.029 129.707 36.096 129.953 36.1988C130.199 36.3017 130.418 36.4503 130.612 36.6446C130.805 36.8389 130.981 37.0838 131.138 37.3761C131.296 37.6684 131.458 38.0227 131.625 38.4374C131.792 38.8538 131.976 39.3322 132.174 39.876H130.589C130.4 39.3731 130.23 38.9338 130.079 38.5599C129.927 38.186 129.779 37.8676 129.631 37.6063C129.486 37.3451 129.328 37.1344 129.161 36.9744C128.994 36.816 128.797 36.7034 128.572 36.6364C128.348 36.5695 128.084 36.5368 127.78 36.5368V35.4134C128.146 35.4134 128.456 35.3497 128.707 35.2208C128.958 35.0934 129.174 34.9007 129.358 34.6427C129.541 34.3864 129.71 34.0712 129.868 33.6957C130.025 33.3218 130.197 32.8776 130.386 32.3633H131.955V32.3649Z" fill="#56774A"></path>
<path d="M140.727 32.3647V39.8774H139.361V35.09C139.361 34.9152 139.366 34.7471 139.377 34.5821C139.387 34.4189 139.403 34.2392 139.425 34.0433H139.377C139.315 34.1968 139.233 34.3584 139.134 34.5283C139.034 34.6981 138.938 34.8434 138.844 34.9675L135.126 39.8774H133.855V32.3647H135.221V37.1669C135.221 37.3318 135.217 37.4951 135.213 37.66C135.208 37.825 135.195 38.0046 135.173 38.1989H135.204C135.288 38.0356 135.377 37.8739 135.472 37.7139C135.565 37.5555 135.66 37.4184 135.754 37.3057L139.472 32.3647H140.728H140.727Z" fill="#56774A"></path>
<path d="M150 32.365V39.8777H148.634V35.0902C148.634 34.9155 148.639 34.7473 148.651 34.5824C148.66 34.4191 148.677 34.2395 148.698 34.0436H148.651C148.588 34.1971 148.506 34.3587 148.408 34.5285C148.308 34.6984 148.211 34.8437 148.118 34.9678L144.399 39.8777H143.128V32.365H144.494V37.1672C144.494 37.3321 144.491 37.4954 144.486 37.6603C144.481 37.8252 144.468 38.0048 144.447 38.1992H144.478C144.561 38.0359 144.65 37.8742 144.745 37.7142C144.839 37.5558 144.934 37.4187 145.027 37.306L148.746 32.365H150.002H150ZM147.408 31.0098H148.032C148.055 31.2155 148.014 31.4016 147.908 31.5633C147.801 31.7266 147.644 31.8572 147.436 31.9584C147.227 32.0597 146.978 32.1087 146.686 32.1087C146.394 32.1087 146.135 32.058 145.924 31.9584C145.712 31.8572 145.553 31.7266 145.447 31.5633C145.34 31.4 145.296 31.2155 145.312 31.0098H145.945C145.939 31.2367 146.001 31.4082 146.132 31.5241C146.263 31.64 146.447 31.6988 146.685 31.6988C146.922 31.6988 147.095 31.64 147.219 31.5241C147.344 31.4082 147.406 31.2367 147.406 31.0098H147.408Z" fill="#56774A"></path>
</g>
<defs>
<clipPath id="clip0_2001_1996">
<rect width="150" height="46.4151" fill="white" transform="translate(0 0.79248)"></rect>
</clipPath>
</defs>
</svg>