<svg version="1.1" xmlns="http://www.w3.org/2000/svg" width="666.000000pt" height="1280.000000pt" viewBox="0 0 666.000000 1280.000000" preserveAspectRatio="xMidYMid meet" xmlns:xlink="http://www.w3.org/1999/xlink" transform="matrix(-1,0,0,1,0,0)">
<g transform="translate(0.000000,1280.000000) scale(0.100000,-0.100000)" fill="#000000" stroke="none">
<path d="M1435 12780 c-4 -6 -9 -52 -12 -103 -5 -80 -3 -95 13 -115 19 -23 19
-22 22 97 3 110 -5 150 -23 121z"></path>
<path d="M1435 12478 c-4 -12 -14 -175 -13 -208 0 -8 0 -58 -1 -110 -1 -52 1
-106 4 -120 6 -24 7 -24 18 -5 8 13 12 74 13 165 0 80 4 178 8 218 7 63 6 72
-8 72 -9 0 -19 -6 -21 -12z"></path>
<path d="M1512 12274 c9 -9 21 -13 27 -9 16 10 3 25 -22 25 -20 0 -20 -1 -5
-16z"></path>
<path d="M1490 12181 c0 -24 13 -38 31 -34 22 6 24 14 7 31 -14 14 -38 16 -38
3z"></path>
<path d="M1500 12090 c0 -13 5 -20 13 -17 6 2 12 10 12 17 0 7 -6 15 -12 18
-8 2 -13 -5 -13 -18z"></path>
<path d="M1525 11845 c-34 -87 -3 -215 66 -281 l28 -27 11 27 c5 15 10 35 10
45 0 32 -22 81 -40 91 -12 6 -16 17 -13 35 7 36 -14 31 -32 -7 -15 -32 -15
-32 -10 37 2 39 7 82 11 98 10 44 -13 32 -31 -18z m75 -216 c0 -36 -2 -40 -15
-29 -15 13 -20 51 -8 63 15 16 23 4 23 -34z"></path>
<path d="M1479 11819 c-16 -31 -14 -98 5 -143 9 -22 18 -37 21 -35 2 3 -1 37
-7 76 -9 54 -9 79 0 98 14 30 -2 34 -19 4z"></path>
<path d="M1404 11806 c-8 -32 -2 -58 14 -64 8 -2 12 9 12 37 0 46 -16 64 -26
27z"></path>
<path d="M1390 11649 c0 -14 5 -19 17 -17 26 5 29 38 4 38 -15 0 -21 -6 -21
-21z"></path>
<path d="M1387 11603 c-12 -11 -8 -68 5 -81 32 -32 50 6 28 62 -9 26 -21 32
-33 19z"></path>
<path d="M1508 11528 c-2 -18 -2 -71 1 -118 6 -79 7 -83 20 -61 10 18 12 47 8
109 -5 89 -21 127 -29 70z"></path>
<path d="M1390 11445 c-2 -5 -2 -80 0 -165 1 -113 5 -159 15 -169 11 -11 15
-6 21 34 9 63 -2 208 -20 265 -8 25 -15 41 -16 35z"></path>
<path d="M1004 11171 c8 -60 12 -71 28 -71 17 0 3 90 -17 109 -16 15 -17 13
-11 -38z"></path>
<path d="M680 11154 c0 -3 14 -39 31 -80 31 -75 57 -104 93 -104 17 0 12 8
-23 44 -26 27 -44 54 -44 70 -1 14 -5 26 -8 26 -3 0 -11 11 -17 25 -10 22 -32
35 -32 19z"></path>
<path d="M869 11093 c16 -31 65 -71 94 -78 38 -10 34 4 -16 53 -44 43 -98 60
-78 25z"></path>
<path d="M1395 11061 c-6 -20 3 -51 15 -51 15 0 22 20 16 46 -8 29 -22 31 -31
5z"></path>
<path d="M1540 10968 c0 -32 3 -58 8 -58 11 0 13 80 2 99 -7 11 -9 0 -10 -41z"></path>
<path d="M870 10966 c0 -24 56 -49 80 -36 29 15 25 27 -12 33 -18 3 -41 8 -50
12 -13 5 -18 2 -18 -9z"></path>
<path d="M1397 10963 c-16 -15 -4 -34 33 -53 l40 -20 0 27 c0 21 -7 31 -27 41
-31 14 -37 15 -46 5z"></path>
<path d="M1021 10913 c49 -82 82 -121 119 -142 38 -21 39 -21 49 -2 14 25 14
51 1 51 -5 0 -10 -4 -10 -10 0 -5 -4 -10 -10 -10 -5 0 -10 6 -10 14 0 16 -55
66 -73 66 -7 0 -21 16 -31 35 -12 21 -27 35 -38 35 -19 0 -19 -2 3 -37z"></path>
<path d="M1540 10861 c0 -31 14 -49 25 -32 8 13 -5 61 -16 61 -5 0 -9 -13 -9
-29z"></path>
<path d="M1390 10787 c0 -23 11 -47 22 -47 14 0 5 53 -9 58 -7 2 -13 -3 -13
-11z"></path>
<path d="M1238 10672 c19 -23 40 -42 48 -42 28 0 -6 39 -66 75 -8 5 0 -10 18
-33z"></path>
<path d="M1402 10694 c1 -9 9 -19 16 -22 9 -3 13 2 10 14 -1 9 -9 19 -16 22
-9 3 -13 -2 -10 -14z"></path>
<path d="M1430 10641 c-8 -17 -6 -22 17 -33 25 -12 28 -20 31 -66 2 -30 7 -50
13 -47 14 9 11 52 -8 112 -17 55 -35 67 -53 34z"></path>
<path d="M1330 10592 c0 -28 51 -119 75 -132 38 -20 40 -6 7 42 -48 67 -81
104 -82 90z"></path>
<path d="M1516 10481 c-13 -20 -16 -130 -5 -137 5 -3 14 7 19 21 15 38 13 58
-5 51 -18 -6 -19 -2 -4 25 13 25 8 62 -5 40z"></path>
<path d="M1376 10425 c4 -16 10 -48 13 -70 5 -31 12 -41 33 -49 15 -5 30 -7
33 -4 8 8 -37 96 -65 128 l-21 25 7 -30z"></path>
<path d="M1735 10258 c-9 -53 -9 -94 1 -110 11 -18 22 24 23 89 1 64 -15 78
-24 21z"></path>
<path d="M1396 10271 c-10 -16 5 -41 25 -41 21 0 25 20 7 38 -14 14 -25 15
-32 3z"></path>
<path d="M1384 10144 c1 -14 10 -32 19 -39 18 -13 23 -35 7 -35 -17 0 -24 -51
-9 -61 30 -19 40 -10 25 20 -14 26 -14 30 -1 41 21 18 19 35 -7 53 l-23 16 23
0 c32 1 23 25 -10 29 -21 3 -25 -1 -24 -24z"></path>
<path d="M1490 10147 c0 -23 25 -55 35 -45 2 2 1 17 -3 33 -10 37 -32 45 -32
12z"></path>
<path d="M1500 9960 c0 -66 4 -120 9 -120 4 0 11 34 15 77 10 118 8 150 -9
157 -13 5 -15 -12 -15 -114z"></path>
<path d="M1376 9899 c-9 -94 -7 -133 8 -154 13 -18 15 -13 20 45 13 140 12
164 -5 168 -13 2 -17 -10 -23 -59z"></path>
<path d="M1426 9895 c-7 -37 -1 -59 15 -50 12 8 12 72 0 79 -5 3 -12 -10 -15
-29z"></path>
<path d="M1707 9863 c-39 -164 -45 -319 -16 -388 11 -27 14 -13 25 140 6 94
15 203 19 243 10 92 -6 95 -28 5z"></path>
<path d="M1460 9874 c0 -21 4 -33 10 -29 6 3 10 19 10 36 0 16 -4 29 -10 29
-5 0 -10 -16 -10 -36z"></path>
<path d="M561 9817 c-15 -88 -15 -125 2 -109 13 14 27 161 16 168 -4 2 -12
-25 -18 -59z"></path>
<path d="M1540 9816 c0 -28 9 -56 19 -56 5 0 6 36 2 70 -2 21 -21 9 -21 -14z"></path>
<path d="M1454 9766 c-8 -22 0 -69 12 -73 13 -4 24 40 17 68 -6 22 -21 25 -29
5z"></path>
<path d="M417 9763 c-4 -3 -7 -18 -7 -32 0 -28 14 -19 25 17 6 21 -4 30 -18
15z"></path>
<path d="M1555 9727 c-4 -10 -5 -21 -1 -24 10 -10 18 4 13 24 -4 17 -4 17 -12
0z"></path>
<path d="M1364 9675 c-7 -40 -2 -50 21 -41 11 4 15 16 13 38 -4 45 -25 47 -34
3z"></path>
<path d="M1420 9681 c0 -11 39 -26 47 -17 8 8 3 12 -24 20 -13 4 -23 3 -23 -3z"></path>
<path d="M395 9636 c-4 -24 -4 -54 0 -66 8 -26 31 -21 27 6 -2 10 -4 38 -4 62
-2 55 -15 54 -23 -2z"></path>
<path d="M530 9634 c0 -14 4 -23 10 -19 6 3 10 15 10 26 0 10 -4 19 -10 19 -5
0 -10 -12 -10 -26z"></path>
<path d="M1422 9628 c3 -7 15 -15 27 -16 16 -3 22 1 19 10 -3 7 -15 15 -27 16
-16 3 -22 -1 -19 -10z"></path>
<path d="M1526 9588 c-3 -13 -6 -27 -6 -33 1 -15 30 27 30 42 0 22 -17 15 -24
-9z"></path>
<path d="M1416 9574 c-3 -9 -6 -18 -6 -20 0 -8 35 -4 50 6 13 9 13 11 0 20
-22 14 -37 12 -44 -6z"></path>
<path d="M490 9410 c0 -114 9 -148 26 -97 8 25 7 122 -2 180 -12 75 -24 34
-24 -83z"></path>
<path d="M1357 9493 c-9 -9 -8 -99 2 -148 7 -32 9 -21 10 58 1 97 0 103 -12
90z"></path>
<path d="M1420 9391 c13 -25 27 -34 40 -26 16 10 -8 45 -31 45 -16 0 -18 -3
-9 -19z"></path>
<path d="M1410 9324 c0 -11 8 -14 27 -12 39 4 42 28 4 28 -21 0 -31 -5 -31
-16z"></path>
<path d="M364 9276 c-8 -33 3 -137 16 -150 13 -13 13 144 1 163 -8 12 -11 9
-17 -13z"></path>
<path d="M1670 9248 c0 -55 17 -134 27 -124 9 9 -8 176 -18 176 -5 0 -9 -24
-9 -52z"></path>
<path d="M506 8870 c3 -211 7 -387 10 -389 2 -3 8 0 13 5 11 12 -6 701 -19
739 -7 20 -8 -92 -4 -355z"></path>
<path d="M1495 9190 c-4 -6 12 -10 42 -10 35 0 44 3 33 10 -20 13 -67 13 -75
0z"></path>
<path d="M1350 9061 c0 -76 4 -132 10 -136 6 -4 10 40 10 124 0 76 -4 132 -10
136 -6 4 -10 -40 -10 -124z"></path>
<path d="M1428 9099 c-6 -53 0 -78 13 -57 11 17 11 69 0 87 -6 9 -10 -1 -13
-30z"></path>
<path d="M1510 9130 c20 -13 67 -13 75 0 4 6 -12 10 -42 10 -35 0 -44 -3 -33
-10z"></path>
<path d="M986 9078 c-21 -29 -66 -127 -66 -145 0 -22 52 49 71 96 12 31 27 62
32 69 6 8 6 12 -1 12 -6 0 -22 -15 -36 -32z"></path>
<path d="M387 9073 c-13 -12 -7 -109 8 -129 13 -17 14 -13 15 46 0 63 -9 97
-23 83z"></path>
<path d="M1482 9068 c6 -16 41 -22 85 -13 50 9 30 25 -33 25 -40 0 -55 -4 -52
-12z"></path>
<path d="M1495 9011 c-7 -12 99 -26 122 -16 17 7 16 8 -2 15 -28 12 -113 12
-120 1z"></path>
<path d="M1480 8961 c0 -12 48 -31 75 -31 27 0 44 18 23 24 -28 9 -98 14 -98
7z"></path>
<path d="M851 8860 c-18 -38 -31 -80 -29 -92 3 -18 12 -7 41 52 36 73 46 110
28 110 -4 0 -23 -31 -40 -70z"></path>
<path d="M1465 8910 c-6 -10 34 -30 60 -30 26 0 26 20 0 30 -33 13 -52 13 -60
0z"></path>
<path d="M397 8884 c-4 -4 -4 -18 -1 -30 5 -18 2 -24 -9 -24 -13 0 -15 -9 -11
-52 3 -29 8 -59 10 -66 7 -22 24 -3 24 26 0 15 6 52 14 82 11 41 11 57 3 62
-15 10 -22 10 -30 2z"></path>
<path d="M1439 8856 c16 -19 42 -25 70 -15 34 13 15 29 -36 29 -38 0 -43 -2
-34 -14z"></path>
<path d="M1346 8834 c-12 -30 -6 -120 9 -140 13 -17 14 -11 15 69 0 81 -9 109
-24 71z"></path>
<path d="M1670 8678 c1 -122 5 -171 15 -193 l15 -30 -5 37 c-5 33 -4 36 15 31
18 -5 20 -1 20 36 0 47 -14 54 -28 14 -9 -23 -11 -12 -14 62 -1 50 -2 116 -2
148 1 31 -3 57 -8 57 -4 0 -8 -73 -8 -162z"></path>
<path d="M1464 8744 c4 -27 8 -84 8 -126 2 -80 11 -97 28 -52 14 36 -10 216
-29 222 -10 3 -12 -6 -7 -44z"></path>
<path d="M1435 8650 c7 -108 14 -150 23 -150 12 0 -5 221 -18 233 -9 9 -11 -9
-5 -83z"></path>
<path d="M1392 8635 c2 -55 9 -100 16 -107 9 -9 12 5 12 64 0 87 -8 138 -22
138 -7 0 -9 -36 -6 -95z"></path>
<path d="M1346 8644 c-9 -25 -7 -63 6 -87 11 -21 11 -21 19 -2 12 32 10 82 -5
94 -11 9 -15 8 -20 -5z"></path>
<path d="M742 8587 c-29 -69 -28 -82 4 -29 14 23 24 51 22 61 -2 13 -10 3 -26
-32z"></path>
<path d="M666 8478 c-3 -17 -27 -77 -53 -132 -66 -145 -74 -166 -65 -166 12 0
122 254 129 296 7 43 -2 45 -11 2z"></path>
<path d="M374 8353 c3 -82 6 -156 6 -165 0 -10 5 -18 10 -18 6 0 10 51 10 134
0 140 -6 196 -22 196 -6 0 -7 -58 -4 -147z"></path>
<path d="M1355 8383 c4 -117 3 -113 16 -113 15 0 7 176 -8 191 -8 8 -10 -15
-8 -78z"></path>
<path d="M1401 8447 c-14 -36 -14 -53 0 -78 8 -16 13 -18 25 -8 18 15 18 70 0
95 -14 18 -15 18 -25 -9z"></path>
<path d="M608 8412 c-10 -20 -15 -38 -12 -41 8 -8 44 38 44 55 0 27 -16 20
-32 -14z"></path>
<path d="M1707 8433 c-9 -8 -9 -56 -1 -77 11 -29 24 -17 24 22 0 39 -12 67
-23 55z"></path>
<path d="M435 8390 c-4 -6 -2 -17 4 -24 6 -7 8 -16 4 -19 -9 -9 10 -8 22 1 18
13 13 52 -6 52 -10 0 -21 -5 -24 -10z"></path>
<path d="M529 8334 c-11 -14 -9 -15 16 -12 16 1 30 9 33 16 6 18 -33 15 -49
-4z"></path>
<path d="M1684 8265 c3 -38 6 -128 7 -200 1 -80 4 -118 9 -100 10 42 0 348
-13 360 -6 7 -8 -13 -3 -60z"></path>
<path d="M441 8297 c-14 -35 -14 -47 -1 -47 12 0 24 44 17 62 -3 8 -9 1 -16
-15z"></path>
<path d="M610 8253 c-45 -85 -47 -95 -16 -58 26 30 63 111 55 120 -3 2 -20
-26 -39 -62z"></path>
<path d="M1435 8268 c-2 -7 -8 -44 -13 -81 l-9 -68 25 3 c14 2 26 10 28 19 1
9 5 30 8 46 6 24 3 32 -11 37 -14 6 -15 9 -4 16 8 4 11 15 8 24 -8 19 -26 21
-32 4z"></path>
<path d="M1377 8223 c-11 -10 -8 -156 3 -173 7 -10 10 16 10 83 0 97 -1 103
-13 90z"></path>
<path d="M1710 8173 c0 -61 8 -103 19 -103 8 0 13 108 6 138 -10 42 -25 22
-25 -35z"></path>
<path d="M289 8178 c20 -49 54 -60 59 -20 4 30 -24 62 -54 62 l-23 0 18 -42z"></path>
<path d="M1412 8049 c-1 -32 21 -50 40 -31 16 16 1 62 -21 62 -13 0 -18 -8
-19 -31z"></path>
<path d="M345 7918 c4 -79 10 -236 14 -350 7 -219 19 -271 41 -187 7 23 9 59
6 78 -3 20 -10 146 -15 281 -10 237 -21 320 -42 320 -7 0 -8 -46 -4 -142z"></path>
<path d="M1716 7972 c-3 -37 -6 -103 -7 -147 -2 -110 -16 -165 -18 -70 -1 56
-4 66 -13 51 -16 -29 -5 -157 16 -168 9 -5 16 -17 16 -27 0 -9 7 -26 16 -37
15 -18 15 -18 9 11 -8 34 -7 423 0 436 3 4 1 10 -3 13 -5 3 -12 -25 -16 -62z"></path>
<path d="M1424 7955 c-8 -21 10 -39 30 -32 22 9 20 24 -4 37 -16 9 -22 8 -26
-5z"></path>
<path d="M1375 7805 c0 -80 3 -145 8 -145 9 0 10 13 7 155 -3 171 -15 162 -15
-10z"></path>
<path d="M445 7879 c-4 -5 1 -19 10 -29 15 -17 15 -19 0 -27 -15 -9 -15 -12 1
-45 17 -36 16 -47 -8 -80 -9 -13 -9 -25 2 -57 12 -36 11 -45 -5 -81 -14 -32
-16 -43 -6 -53 31 -31 53 81 50 252 -2 118 -4 131 -20 131 -10 0 -21 -5 -24
-11z"></path>
<path d="M540 7849 c0 -17 4 -28 10 -24 6 3 10 17 10 31 0 13 -4 24 -10 24 -5
0 -10 -14 -10 -31z"></path>
<path d="M1491 7848 c1 -24 3 -27 6 -10 8 39 23 24 23 -22 0 -25 5 -48 10 -51
6 -4 10 17 10 54 0 58 -1 61 -25 61 -22 0 -25 -4 -24 -32z"></path>
<path d="M1420 7771 c0 -5 7 -12 16 -15 22 -9 24 -8 24 9 0 8 -9 15 -20 15
-11 0 -20 -4 -20 -9z"></path>
<path d="M1190 7754 c-9 -10 -10 -18 -3 -25 8 -8 14 -5 22 9 13 25 -2 38 -19
16z"></path>
<path d="M1240 7711 c-12 -19 -16 -32 -10 -36 18 -11 46 4 58 31 16 33 15 34
-7 34 -11 0 -29 -13 -41 -29z"></path>
<path d="M1420 7722 c0 -26 10 -33 31 -21 28 14 24 39 -6 39 -18 0 -25 -5 -25
-18z"></path>
<path d="M1136 7715 c-3 -8 -13 -15 -21 -15 -18 0 -17 -31 1 -37 17 -6 68 42
60 55 -10 17 -33 15 -40 -3z"></path>
<path d="M556 7682 c-20 -33 -34 -244 -17 -271 17 -27 26 13 26 124 1 61 4
120 9 133 8 21 -6 33 -18 14z"></path>
<path d="M1162 7659 c-13 -21 -42 -23 -83 -5 -13 6 -48 -27 -143 -133 -126
-139 -261 -271 -277 -271 -5 0 -9 5 -9 10 0 21 -31 9 -70 -26 -72 -65 -35 -79
56 -21 71 44 255 208 288 255 17 25 44 61 60 79 33 39 87 66 98 50 8 -13 81 9
112 34 17 14 18 19 7 33 -18 21 -24 20 -39 -5z"></path>
<path d="M1740 7645 c0 -20 41 -36 58 -23 9 8 9 14 1 24 -16 19 -59 18 -59 -1z"></path>
<path d="M1507 7623 c-4 -3 -4 -44 0 -91 5 -63 3 -83 -5 -78 -7 4 -12 16 -12
27 0 10 -4 19 -8 19 -10 0 -3 -130 9 -150 5 -10 9 4 9 40 1 49 2 52 12 30 11
-23 12 -20 19 35 12 105 11 175 -4 175 -8 0 -17 -3 -20 -7z"></path>
<path d="M1369 7605 c-1 -5 -2 -80 -3 -165 -2 -120 0 -140 6 -90 14 114 18
219 8 242 -5 13 -10 19 -11 13z"></path>
<path d="M1188 7576 c-9 -8 -24 -13 -35 -10 -11 3 -25 -1 -32 -10 -11 -13 -9
-16 14 -22 58 -15 131 10 122 41 -6 16 -53 17 -69 1z"></path>
<path d="M1420 7567 c0 -7 6 -19 12 -25 10 -10 10 -15 -1 -21 -7 -5 -10 -14
-7 -20 4 -6 0 -21 -8 -33 -21 -29 -20 -62 1 -84 16 -16 18 -13 28 52 26 156
26 144 -1 144 -13 0 -24 -6 -24 -13z"></path>
<path d="M1889 7526 c19 -19 57 -49 85 -66 l51 -31 -66 66 c-37 36 -75 65 -85
65 -14 0 -11 -7 15 -34z"></path>
<path d="M1225 7491 c-53 -7 -75 -16 -75 -32 0 -13 81 -11 109 4 23 12 42 39
24 36 -4 -1 -30 -5 -58 -8z"></path>
<path d="M1675 7414 c-5 -51 -4 -79 4 -87 8 -8 11 12 11 76 0 48 -2 87 -4 87
-2 0 -7 -34 -11 -76z"></path>
<path d="M1168 7418 c-38 -13 -35 -24 10 -32 64 -10 119 -7 132 9 10 12 8 16
-15 25 -33 12 -91 12 -127 -2z"></path>
<path d="M454 7376 c-6 -26 1 -46 17 -46 5 0 9 16 9 35 0 40 -17 47 -26 11z"></path>
<path d="M2094 7363 c43 -66 54 -78 61 -71 11 11 -23 65 -55 88 l-31 22 25
-39z"></path>
<path d="M1182 7323 c-13 -3 -21 -10 -19 -16 4 -14 107 -22 147 -12 24 6 24 7
6 21 -19 13 -83 17 -134 7z"></path>
<path d="M1411 7321 c-9 -6 -10 -11 -3 -15 6 -4 9 -13 5 -21 -3 -9 1 -15 9
-15 10 0 15 11 15 30 0 32 -4 35 -26 21z"></path>
<path d="M1396 7238 c-12 -45 -7 -128 8 -128 7 0 16 -8 18 -18 3 -12 14 -17
31 -17 36 2 46 14 24 30 -15 11 -16 13 -2 19 9 3 15 18 15 36 0 24 -4 30 -20
30 -13 0 -28 13 -41 35 -12 19 -22 35 -24 35 -1 0 -5 -10 -9 -22z"></path>
<path d="M2190 7248 c0 -6 7 -19 16 -29 12 -13 13 -22 5 -38 -13 -24 -14 -61
-2 -61 5 0 12 8 15 18 3 9 3 -7 0 -36 -3 -31 -1 -51 4 -48 24 15 16 151 -11
194 -10 15 -27 16 -27 0z"></path>
<path d="M1190 7240 c-13 -9 -13 -11 0 -20 16 -11 130 -14 130 -4 0 28 -97 46
-130 24z"></path>
<path d="M1688 7214 c-5 -4 -8 -41 -8 -83 0 -42 -7 -103 -15 -136 -16 -67 -19
-141 -7 -149 15 -9 34 96 39 219 6 125 3 162 -9 149z"></path>
<path d="M1347 7122 c-9 -112 -9 -112 -79 -112 -51 0 -59 -2 -56 -17 3 -15 13
-18 66 -15 34 1 62 -1 62 -5 -1 -21 -20 -31 -72 -37 -81 -10 -75 -40 7 -41 46
0 51 -11 40 -82 -5 -37 -9 -43 -23 -38 -30 12 -47 10 -47 -5 0 -9 11 -16 28
-18 22 -3 27 -8 27 -30 0 -57 -10 -72 -47 -72 -23 0 -33 -4 -30 -12 2 -7 17
-13 33 -13 25 -1 29 -5 32 -33 4 -37 1 -38 -34 -16 -18 12 -28 14 -36 6 -7 -7
-3 -14 13 -22 32 -17 30 -15 23 -34 -3 -9 -17 -16 -29 -16 -31 0 -43 -20 -16
-27 33 -8 26 -33 -9 -33 -44 0 -33 -33 14 -41 39 -8 29 -29 -14 -29 -27 0 -39
-4 -34 -11 3 -6 19 -9 35 -5 27 5 29 3 29 -24 0 -17 -4 -30 -9 -30 -5 0 -17
-3 -25 -6 -11 -4 -15 -2 -11 8 5 13 -39 47 -49 37 -7 -7 -10 -138 -3 -145 3
-4 9 5 13 20 5 23 7 24 22 9 16 -15 18 -82 5 -127 -4 -13 -1 -17 8 -13 8 3 22
8 31 12 13 5 18 -1 23 -32 3 -21 8 -49 11 -61 3 -15 1 -21 -6 -17 -7 4 -10
-42 -10 -142 0 -81 -5 -166 -10 -188 -5 -22 -6 -51 -3 -64 14 -55 25 18 31
195 4 137 8 187 18 195 18 15 18 71 -1 115 -10 23 -13 50 -9 75 6 37 5 39 -19
39 -19 0 -26 6 -30 27 -7 38 -3 42 38 29 27 -8 35 -15 31 -28 -2 -10 0 -18 5
-18 15 0 22 48 11 77 -9 25 -11 26 -11 6 -1 -13 -5 -23 -10 -23 -17 0 -21 48
-6 76 8 17 15 56 15 90 0 53 3 62 20 67 18 5 20 14 21 104 0 78 3 93 11 76 6
-13 14 -23 19 -23 14 0 21 98 9 134 -8 24 -8 52 0 97 12 77 13 276 1 283 -4 3
-11 -30 -14 -72z m-111 -953 c3 -6 0 -15 -7 -20 -22 -14 -29 -11 -29 11 0 21
24 27 36 9z"></path>
<path d="M1180 7165 c0 -8 3 -15 8 -16 125 -13 180 -3 116 21 -42 16 -124 13
-124 -5z"></path>
<path d="M390 7151 c-8 -5 -39 -11 -68 -14 -62 -7 -80 -16 -61 -28 8 -5 24 -9
36 -9 28 0 133 40 133 51 0 11 -20 11 -40 0z"></path>
<path d="M1204 7099 c-9 -16 15 -29 54 -29 39 0 75 17 67 31 -9 13 -112 11
-121 -2z"></path>
<path d="M1390 7001 c0 -11 21 -19 38 -14 21 8 13 23 -13 23 -14 0 -25 -4 -25
-9z"></path>
<path d="M1390 6941 c0 -11 40 -22 52 -15 5 3 6 10 3 15 -8 12 -55 12 -55 0z"></path>
<path d="M1390 6845 c0 -42 21 -47 38 -10 17 37 15 45 -13 45 -22 0 -25 -4
-25 -35z"></path>
<path d="M1230 6831 c0 -16 28 -20 40 -5 10 12 8 14 -14 14 -14 0 -26 -4 -26
-9z"></path>
<path d="M1378 6725 c-4 -22 -8 -58 -8 -80 1 -32 3 -36 11 -23 5 10 9 46 7 80
-3 60 -3 61 -10 23z"></path>
<path d="M655 6720 c-164 -3 -237 -8 -212 -13 21 -5 130 -7 242 -5 112 1 207
-1 211 -5 4 -4 -6 -7 -22 -7 -22 0 -26 -3 -14 -10 20 -13 66 -13 91 0 18 10
19 7 19 -65 0 -71 11 -115 28 -115 11 0 14 145 3 174 -8 20 -17 26 -42 26 -18
0 -37 6 -43 13 -8 9 -68 11 -261 7z"></path>
<path d="M1243 6718 c2 -7 10 -13 17 -13 7 0 15 6 18 13 2 7 -5 12 -18 12 -13
0 -20 -5 -17 -12z"></path>
<path d="M255 6690 c-8 -13 35 -13 55 0 11 7 7 10 -17 10 -17 0 -35 -4 -38
-10z"></path>
<path d="M932 6628 c-16 -16 -15 -35 3 -42 11 -4 15 2 15 24 0 34 -1 35 -18
18z"></path>
<path d="M2188 6610 c-7 -19 -29 -151 -34 -210 -7 -69 12 -18 31 85 15 79 17
161 3 125z"></path>
<path d="M842 6546 c-14 -32 -16 -56 -2 -56 15 0 27 33 21 59 l-6 24 -13 -27z"></path>
<path d="M897 6543 c-6 -32 14 -52 25 -25 11 29 9 52 -6 52 -7 0 -16 -12 -19
-27z"></path>
<path d="M780 6515 c-7 -8 -10 -28 -8 -45 3 -18 -1 -35 -9 -41 -15 -13 -18
-73 -3 -64 5 3 40 -5 78 -18 l69 -24 29 24 c16 12 24 23 19 23 -6 0 -15 -4
-21 -10 -11 -11 -105 19 -111 36 -2 7 13 10 39 10 32 -1 43 3 43 14 0 19 -60
15 -92 -6 -12 -8 -24 -14 -26 -14 -2 0 0 28 5 62 9 67 7 76 -12 53z"></path>
<path d="M870 6474 c0 -9 5 -14 12 -12 18 6 21 28 4 28 -9 0 -16 -7 -16 -16z"></path>
<path d="M971 6445 c-10 -38 -8 -55 9 -55 14 0 24 70 12 82 -7 7 -14 -1 -21
-27z"></path>
<path d="M708 6424 c-10 -21 -9 -27 3 -34 10 -7 16 -4 21 8 19 48 -3 73 -24
26z"></path>
<path d="M1356 6424 c-9 -24 -7 -147 3 -163 13 -20 24 4 17 35 -6 24 8 34 17
12 3 -7 6 11 6 40 1 72 -26 120 -43 76z"></path>
<path d="M637 6363 c-4 -3 -7 -15 -7 -25 0 -22 26 -24 34 -2 10 25 -10 45 -27
27z"></path>
<path d="M1319 6348 c-11 -21 -7 -133 6 -146 15 -15 25 27 18 78 -3 30 -6 63
-5 73 1 23 -5 22 -19 -5z"></path>
<path d="M690 6345 c-13 -16 -7 -45 10 -45 5 0 10 6 10 14 0 8 3 21 6 30 8 20
-10 21 -26 1z"></path>
<path d="M1055 6348 c-26 -14 -35 -28 -35 -53 1 -19 1 -19 14 -2 14 18 14 17
21 -2 8 -25 55 -30 55 -6 0 18 -19 20 -22 3 0 -7 -4 6 -7 29 -5 38 -8 41 -26
31z"></path>
<path d="M1634 6339 c-4 -7 -11 -78 -15 -158 -12 -211 -16 -269 -24 -333 -5
-41 -4 -58 4 -58 7 0 11 22 11 61 0 37 4 58 10 54 6 -4 10 16 10 52 0 32 7
129 16 216 11 106 13 162 6 169 -6 6 -12 5 -18 -3z"></path>
<path d="M742 6318 c6 -18 28 -21 28 -4 0 9 -7 16 -16 16 -9 0 -14 -5 -12 -12z"></path>
<path d="M616 6288 c-10 -49 -12 -88 -5 -88 12 0 26 30 34 73 6 30 4 37 -9 37
-8 0 -18 -10 -20 -22z"></path>
<path d="M661 6249 c-15 -43 -14 -69 2 -69 15 0 41 75 32 90 -11 18 -23 10
-34 -21z"></path>
<path d="M830 6261 c0 -13 88 -54 100 -46 19 12 10 26 -25 41 -39 16 -75 18
-75 5z"></path>
<path d="M976 6253 c-8 -19 1 -33 20 -33 19 0 18 -17 -3 -29 -14 -8 -15 -12
-4 -25 17 -20 31 -21 31 -2 0 26 21 29 46 5 28 -27 29 -24 8 27 -15 36 -17 37
-30 19 -13 -18 -14 -18 -14 6 0 30 -45 56 -54 32z"></path>
<path d="M545 6230 c-8 -16 -18 -50 -21 -75 -5 -32 -12 -46 -26 -51 -29 -9
-31 0 -9 37 12 19 21 43 21 54 -1 20 -1 20 -15 1 -8 -11 -15 -28 -15 -37 0
-11 -26 -35 -65 -60 -35 -24 -63 -44 -62 -46 7 -6 158 36 181 51 27 17 33 32
16 38 -6 2 -2 20 10 43 22 43 25 61 10 70 -5 3 -16 -8 -25 -25z"></path>
<path d="M723 6253 c-19 -7 -16 -29 5 -30 9 -1 27 -4 40 -8 32 -11 29 23 -4
35 -14 6 -26 10 -27 9 -1 0 -8 -3 -14 -6z"></path>
<path d="M830 6201 c0 -6 5 -13 10 -16 15 -9 12 -25 -5 -25 -17 0 -20 -16 -4
-26 6 -3 9 -15 6 -25 -3 -11 -1 -16 5 -13 5 3 7 18 3 31 -5 20 -3 24 8 20 9
-3 20 5 28 19 11 21 11 27 -1 34 -19 13 -50 13 -50 1z"></path>
<path d="M705 6180 c-3 -4 2 -10 10 -14 8 -3 15 -12 15 -20 0 -9 7 -12 20 -9
12 3 20 12 18 21 -3 17 -55 35 -63 22z"></path>
<path d="M629 6118 c-13 -51 -28 -142 -24 -146 10 -10 39 57 50 113 9 52 9 65
-1 69 -9 3 -17 -9 -25 -36z"></path>
<path d="M2074 6135 c-8 -30 -1 -40 21 -31 10 3 15 15 13 28 -4 31 -26 34 -34
3z"></path>
<path d="M977 6131 c11 -30 54 -81 69 -81 20 0 18 14 -6 35 -11 10 -20 23 -20
29 0 6 -11 16 -24 22 -21 10 -24 9 -19 -5z"></path>
<path d="M681 6112 c-6 -11 -6 -24 -1 -32 6 -9 4 -20 -5 -30 -8 -9 -17 -36
-21 -60 -7 -40 -6 -44 9 -32 8 7 18 31 22 53 4 21 12 42 17 46 8 4 9 -2 4 -18
-15 -55 -18 -79 -8 -79 15 0 34 28 30 42 -3 7 8 19 25 26 26 10 31 10 42 -5
12 -16 15 -16 34 7 34 42 28 54 -25 46 -42 -5 -47 -3 -71 24 -29 35 -39 37
-52 12z"></path>
<path d="M1690 6107 c0 -20 13 -28 100 -60 96 -36 168 -48 155 -27 -3 6 -22
10 -42 10 -37 0 -177 60 -156 67 7 3 23 -3 35 -11 12 -9 35 -16 50 -16 15 0
48 -5 73 -12 35 -9 48 -9 57 0 9 9 6 12 -16 12 -15 0 -61 14 -103 30 -41 17
-92 30 -114 30 -34 0 -39 -3 -39 -23z"></path>
<path d="M1327 6094 c-12 -12 4 -24 30 -24 21 0 24 2 13 15 -13 16 -32 20 -43
9z"></path>
<path d="M1661 6038 c-1 -67 1 -69 138 -112 130 -41 120 -19 -16 33 -91 35
-103 46 -114 99 -6 34 -7 32 -8 -20z"></path>
<path d="M1995 6070 c-4 -6 5 -10 19 -10 14 0 26 5 26 10 0 6 -9 10 -19 10
-11 0 -23 -4 -26 -10z"></path>
<path d="M1176 6039 c-4 -19 -13 -33 -26 -36 -26 -7 -26 -23 0 -30 19 -5 20
-6 3 -19 -16 -12 -15 -13 16 -14 19 0 32 2 29 5 -3 3 -2 26 3 50 8 45 4 75
-11 75 -4 0 -10 -14 -14 -31z"></path>
<path d="M1703 6036 c6 -20 75 -52 149 -69 109 -26 107 -23 69 -107 -18 -39
-31 -74 -28 -76 3 -3 14 14 25 38 11 24 45 81 75 128 30 47 53 87 50 90 -2 2
-24 -17 -49 -42 l-46 -45 -125 47 c-68 26 -122 43 -120 36z"></path>
<path d="M907 6033 c-7 -11 35 -33 63 -33 18 0 37 17 28 25 -10 10 -86 16 -91
8z"></path>
<path d="M15 6016 c-17 -12 -17 -13 6 -19 13 -3 71 -2 128 2 57 4 123 4 148 0
46 -9 89 3 78 22 -10 15 -338 12 -360 -5z"></path>
<path d="M1315 6020 c3 -5 17 -10 31 -10 14 0 22 4 19 10 -3 6 -17 10 -31 10
-14 0 -22 -4 -19 -10z"></path>
<path d="M788 5984 c-8 -7 3 -44 13 -44 12 0 30 36 22 44 -8 7 -28 8 -35 0z"></path>
<path d="M900 5959 c-34 -14 -70 -49 -70 -69 0 -9 -11 -31 -25 -50 -27 -36
-31 -50 -15 -50 5 0 22 19 37 43 43 68 74 96 111 103 33 6 34 8 17 20 -22 16
-22 16 -55 3z"></path>
<path d="M1290 5964 c0 -4 14 -23 32 -43 l32 -36 -29 -5 c-38 -7 -42 -25 -11
-46 33 -21 33 -30 1 -38 -30 -8 -32 -25 -5 -59 26 -32 25 -47 -1 -47 -18 0
-20 -5 -16 -27 2 -16 11 -42 18 -60 11 -28 11 -34 -5 -52 -19 -21 -18 -62 2
-69 7 -2 12 5 12 19 0 13 12 33 27 45 l28 22 -17 51 c-16 49 -15 52 3 61 25
14 24 42 -2 59 l-22 13 29 24 29 24 -22 16 c-27 19 -29 39 -6 53 15 8 15 13 5
36 -7 14 -12 35 -12 45 0 16 -7 20 -35 20 -19 0 -35 -3 -35 -6z"></path>
<path d="M6 5943 c-11 -11 -6 -23 9 -23 8 0 15 4 15 9 0 13 -16 22 -24 14z"></path>
<path d="M1685 5929 c15 -49 40 -63 120 -67 50 -3 75 -1 75 7 0 14 -43 24 -69
16 -14 -4 -35 3 -64 22 -71 49 -70 48 -62 22z"></path>
<path d="M1080 5910 c0 -5 14 -16 30 -25 36 -19 40 -4 5 19 -28 19 -35 20 -35
6z"></path>
<path d="M1030 5891 c0 -11 58 -61 70 -61 5 0 17 -3 27 -7 16 -6 16 -4 -2 16
-23 27 -95 66 -95 52z"></path>
<path d="M1642 5878 c3 -7 17 -16 34 -21 16 -6 46 -21 66 -34 39 -24 82 -30
93 -13 3 6 -2 10 -12 10 -10 0 -55 16 -101 35 -46 18 -82 29 -80 23z"></path>
<path d="M1025 5811 c17 -17 44 -33 60 -37 34 -8 34 -7 -19 35 -51 41 -82 42
-41 2z"></path>
<path d="M1637 5822 c-10 -15 8 -30 72 -56 65 -28 101 -31 109 -8 2 8 -8 12
-32 12 -22 0 -58 12 -90 30 -30 17 -57 27 -59 22z"></path>
<path d="M988 5757 c23 -23 42 -46 42 -50 0 -13 -27 -7 -40 8 -15 18 -40 20
-40 4 0 -7 12 -23 26 -36 29 -27 27 -40 -4 -24 -50 27 -68 4 -29 -37 l22 -24
-27 7 c-32 8 -49 0 -41 -20 3 -10 19 -15 44 -15 37 0 39 2 39 30 0 26 4 30 26
30 21 0 24 4 19 20 -5 14 -2 20 9 20 11 0 16 9 16 30 0 20 5 30 15 30 8 0 15
5 15 10 0 6 -7 10 -16 10 -8 0 -32 11 -52 25 -58 40 -71 30 -24 -18z"></path>
<path d="M1609 5743 c-8 -21 -6 -30 6 -42 15 -15 17 -14 30 3 14 18 15 18 41
0 47 -33 68 -43 78 -37 5 4 1 10 -10 15 -11 5 -24 18 -29 30 -6 11 -31 29 -58
39 l-48 17 -10 -25z"></path>
<path d="M1160 5730 c0 -5 12 -10 26 -10 14 0 23 4 19 10 -3 6 -15 10 -26 10
-10 0 -19 -4 -19 -10z"></path>
<path d="M1140 5691 c0 -15 16 -22 34 -15 25 9 19 24 -9 24 -14 0 -25 -4 -25
-9z"></path>
<path d="M690 5651 c0 -17 27 -37 37 -28 7 8 -9 35 -23 41 -9 3 -14 -1 -14
-13z"></path>
<path d="M1110 5646 c0 -12 10 -16 36 -16 45 0 42 24 -4 28 -24 2 -32 -1 -32
-12z"></path>
<path d="M1577 5569 c-4 -53 -3 -98 3 -107 7 -13 9 -5 10 31 0 43 2 48 19 42
30 -9 33 10 6 35 -34 32 -34 56 0 34 23 -15 25 -15 32 1 4 12 -1 24 -16 37
-41 33 -48 24 -54 -73z"></path>
<path d="M1692 5628 c5 -15 65 -34 76 -24 4 4 -2 14 -12 22 -25 17 -69 19 -64
2z"></path>
<path d="M1786 5581 c-35 -79 -33 -109 3 -46 16 28 33 62 36 78 12 48 -11 29
-39 -32z"></path>
<path d="M630 5616 c0 -7 7 -19 16 -27 8 -7 13 -21 11 -31 -4 -14 1 -18 19
-18 30 0 32 27 3 64 -22 28 -49 35 -49 12z"></path>
<path d="M1085 5600 c-6 -10 34 -30 59 -30 17 0 38 25 29 33 -10 11 -81 8 -88
-3z"></path>
<path d="M1660 5560 c0 -16 58 -42 66 -28 4 6 -1 17 -11 25 -22 15 -55 17 -55
3z"></path>
<path d="M591 5541 c-22 -17 -23 -19 -7 -49 22 -44 20 -56 -13 -68 -20 -8 -32
-22 -41 -50 -7 -22 -34 -81 -61 -131 -28 -51 -45 -93 -40 -93 24 0 90 95 121
175 23 59 38 85 50 85 9 0 25 6 36 14 18 14 18 16 2 60 -10 26 -15 53 -12 61
8 20 -6 19 -35 -4z"></path>
<path d="M1052 5544 c5 -27 51 -40 85 -25 33 15 21 25 -45 36 -39 6 -43 5 -40
-11z"></path>
<path d="M1197 5523 c-13 -22 -18 -125 -11 -221 7 -91 9 -101 15 -67 15 75 23
295 11 295 -6 0 -13 -3 -15 -7z"></path>
<path d="M1037 5483 c-21 -20 63 -53 100 -38 16 6 16 8 -6 26 -22 18 -81 26
-94 12z"></path>
<path d="M1647 5474 c-10 -10 12 -44 28 -44 23 0 29 22 10 37 -21 15 -29 16
-38 7z"></path>
<path d="M980 5441 c0 -21 54 -51 92 -51 69 0 30 39 -54 54 -23 4 -38 3 -38
-3z"></path>
<path d="M1250 5375 c-17 -32 -13 -36 34 -28 30 5 37 9 34 27 -5 33 -50 34
-68 1z"></path>
<path d="M1620 5376 c0 -9 7 -16 16 -16 17 0 14 22 -4 28 -7 2 -12 -3 -12 -12z"></path>
<path d="M940 5360 c0 -18 52 -43 92 -44 61 -1 59 20 -3 38 -60 18 -89 20 -89
6z"></path>
<path d="M1566 5304 c-7 -58 -3 -75 13 -58 10 10 15 43 13 87 -3 47 -19 29
-26 -29z"></path>
<path d="M1247 5303 c-16 -16 -4 -24 30 -21 48 4 57 28 11 28 -19 0 -38 -3
-41 -7z"></path>
<path d="M912 5258 c8 -23 52 -39 92 -34 57 7 66 22 20 35 -55 15 -117 14
-112 -1z"></path>
<path d="M1235 5220 c-9 -15 37 -29 58 -18 9 5 17 13 17 18 0 13 -67 13 -75 0z"></path>
<path d="M912 5191 c-20 -12 9 -32 56 -38 45 -6 66 12 30 26 -44 16 -73 20
-86 12z"></path>
<path d="M1221 5166 c-9 -11 -9 -15 1 -19 16 -5 48 10 48 23 0 15 -36 12 -49
-4z"></path>
<path d="M902 5123 c-7 -2 -17 -14 -23 -25 -10 -19 -9 -20 33 -13 49 8 78 21
78 35 0 10 -65 12 -88 3z"></path>
<path d="M1544 5088 c8 -46 13 -58 27 -58 12 0 11 16 -2 63 -14 52 -33 49 -25
-5z"></path>
<path d="M1070 5090 c0 -11 60 -44 67 -36 9 9 -7 24 -37 34 -17 7 -30 7 -30 2z"></path>
<path d="M1050 5040 c0 -13 61 -51 72 -44 15 10 8 24 -22 39 -34 17 -50 19
-50 5z"></path>
<path d="M935 5029 c-29 -14 -44 -42 -51 -93 -6 -39 -3 -48 20 -71 16 -16 35
-25 49 -23 36 5 26 31 -17 43 -22 6 -42 17 -44 23 -4 14 35 82 48 82 4 0 15
11 24 25 18 27 8 32 -29 14z"></path>
<path d="M1020 4967 c0 -7 16 -21 35 -30 35 -17 35 -17 19 -42 -16 -24 -10
-32 12 -17 10 7 34 45 34 55 0 3 -6 7 -12 10 -7 3 -30 12 -50 21 -30 13 -38
14 -38 3z"></path>
<path d="M1161 4947 c-6 -17 -14 -62 -17 -101 -3 -39 -15 -101 -27 -138 -16
-50 -18 -71 -10 -79 8 -8 16 1 31 35 13 27 31 51 46 58 15 6 26 20 26 30 0 17
-1 18 -25 2 l-25 -16 0 54 c0 30 5 69 11 86 9 27 15 31 35 26 17 -4 26 -1 30
10 9 23 -1 30 -25 16 -24 -12 -28 1 -6 20 21 18 19 25 -9 26 -19 1 -27 -5 -35
-29z"></path>
<path d="M962 4924 c2 -9 13 -23 25 -31 21 -14 23 -14 30 2 4 12 0 23 -12 31
-26 19 -47 18 -43 -2z"></path>
<path d="M615 4920 c-7 -11 2 -30 14 -30 5 0 11 9 14 20 5 21 -16 29 -28 10z"></path>
<path d="M699 4896 c32 -33 61 -47 61 -28 0 7 -64 53 -85 61 -5 2 6 -13 24
-33z"></path>
<path d="M1482 4918 c5 -15 58 -24 58 -10 0 11 -24 22 -47 22 -8 0 -13 -6 -11
-12z"></path>
<path d="M1493 4854 c-1 -31 1 -35 20 -32 15 2 21 9 19 21 -2 10 2 25 9 33 9
12 6 14 -17 14 -26 0 -29 -4 -31 -36z"></path>
<path d="M650 4841 c0 -18 32 -41 56 -41 32 0 30 6 -8 30 -36 22 -48 25 -48
11z"></path>
<path d="M821 4833 c28 -33 99 -49 99 -21 0 12 -63 38 -91 38 -19 0 -20 -2 -8
-17z"></path>
<path d="M961 4759 c-52 -56 -102 -99 -132 -115 -27 -13 -49 -29 -49 -34 0
-14 7 -13 37 7 14 9 35 18 46 18 35 3 202 193 185 210 -2 2 -41 -37 -87 -86z"></path>
<path d="M1196 4827 c-14 -10 -16 -16 -7 -22 15 -9 35 8 30 24 -3 8 -10 7 -23
-2z"></path>
<path d="M763 4766 c42 -39 143 -62 130 -31 -8 23 -56 45 -110 51 l-48 6 28
-26z"></path>
<path d="M1515 4709 c-4 -16 -4 -56 0 -88 6 -55 5 -59 -17 -64 -18 -5 -20 -9
-10 -19 6 -6 12 -27 12 -44 0 -18 5 -36 10 -39 6 -3 10 -5 11 -3 5 29 19 167
18 178 0 8 0 36 0 63 1 53 -14 63 -24 16z"></path>
<path d="M706 4699 c17 -29 125 -52 139 -29 3 5 -8 16 -24 25 -35 18 -126 21
-115 4z"></path>
<path d="M650 4651 c0 -23 100 -28 107 -5 2 6 -18 11 -52 13 -33 1 -55 -2 -55
-8z"></path>
<path d="M730 4560 c-6 -11 -18 -20 -27 -20 -11 0 -14 -6 -9 -22 4 -13 9 -47
13 -76 3 -29 9 -54 13 -57 3 -2 11 33 18 78 6 45 14 90 17 100 10 24 -12 22
-25 -3z"></path>
<path d="M1047 4531 c-33 -60 -36 -86 -8 -71 25 13 36 -2 21 -29 -5 -11 -10
-31 -10 -44 0 -13 -13 -41 -30 -62 -36 -46 -29 -67 11 -29 27 26 59 99 59 136
0 10 11 24 25 30 14 6 25 20 25 30 0 17 -5 19 -30 13 -23 -5 -30 -3 -30 9 0 8
11 16 27 18 31 4 44 28 14 28 -11 0 -23 5 -26 10 -11 18 -22 10 -48 -39z"></path>
<path d="M293 4439 c2 -13 8 -39 12 -56 9 -38 -5 -44 -20 -11 -6 13 -18 24
-27 26 -15 3 -18 -4 -18 -37 0 -33 -4 -42 -27 -53 -28 -14 -31 -18 -63 -87
-27 -61 -17 -64 19 -5 49 80 55 86 73 79 16 -6 15 -10 -7 -43 -14 -20 -25 -44
-25 -54 0 -15 3 -15 25 -4 14 7 34 24 45 38 10 14 33 28 49 31 16 3 40 9 55
13 19 4 26 2 26 -8 0 -8 11 -25 24 -37 14 -13 26 -33 28 -45 6 -40 37 24 40
84 3 47 1 55 -14 54 -12 -1 -18 5 -18 19 0 29 -40 84 -65 90 -11 3 -30 9 -42
12 -22 7 -22 6 -12 -24 14 -40 5 -65 -10 -26 -16 43 -26 58 -41 63 -9 3 -11
-2 -7 -19z"></path>
<path d="M922 4438 c-19 -19 -14 -30 10 -26 13 2 24 11 26 21 4 20 -18 23 -36
5z"></path>
<path d="M1467 4373 c-18 -35 -27 -67 -26 -95 l0 -43 30 63 c19 40 29 75 27
95 l-3 32 -28 -52z"></path>
<path d="M1345 4295 c27 -23 28 -25 9 -25 -27 0 -38 -24 -19 -40 11 -9 10 -15
-6 -31 -21 -21 -22 -60 -2 -66 7 -3 15 7 19 22 3 14 15 32 26 39 16 11 18 18
9 34 -7 13 -7 22 1 30 14 14 -26 62 -51 62 -11 -1 -6 -9 14 -25z"></path>
<path d="M1760 4208 c-44 -30 -52 -53 -16 -44 30 7 36 -13 11 -34 -25 -20 -17
-29 20 -23 35 6 48 -8 23 -24 -7 -4 -20 -17 -28 -27 -14 -18 -13 -19 18 -13
18 4 32 2 32 -3 0 -6 -7 -10 -15 -10 -25 0 -17 -17 20 -40 23 -14 38 -32 42
-51 7 -38 85 -89 137 -89 32 0 37 3 31 19 -4 14 0 23 15 31 26 14 26 33 -1 25
-25 -8 -49 19 -41 47 5 20 -8 24 -25 7 -18 -18 -43 -2 -43 26 0 18 -5 25 -20
25 -23 0 -24 3 -8 30 16 26 -1 55 -31 54 -11 0 -21 5 -21 11 0 6 -12 16 -27
22 l-28 11 26 1 c23 1 79 46 79 64 0 4 -26 7 -59 7 -44 0 -66 -6 -91 -22z m96
-13 c-11 -8 -34 -15 -50 -15 -29 1 -30 1 -12 15 11 8 34 15 50 15 29 -1 30 -1
12 -15z"></path>
<path d="M720 4209 c0 -27 22 -51 44 -45 19 5 76 -8 129 -29 13 -6 17 -2 17
16 0 40 -12 50 -47 40 -27 -8 -34 -6 -47 12 -15 21 -16 21 -27 4 -7 -12 -15
-15 -22 -9 -21 15 -47 22 -47 11z"></path>
<path d="M330 4189 c-51 -23 -95 -61 -116 -100 -19 -38 -33 -106 -26 -131 4
-18 9 -13 31 33 19 38 32 55 49 57 28 4 30 -24 2 -31 -13 -3 -18 -10 -14 -21
3 -9 1 -16 -5 -16 -7 0 -17 -12 -24 -27 -7 -16 -20 -39 -29 -53 -22 -33 -33
-80 -19 -80 6 0 16 20 23 44 8 29 18 46 31 50 10 2 21 14 24 25 3 11 14 23 24
26 15 5 18 12 13 27 -4 13 -2 18 4 14 21 -13 23 15 3 40 -19 25 -28 54 -16 54
3 0 18 -15 34 -32 16 -18 33 -29 37 -25 5 4 -5 18 -20 31 -28 22 -29 23 -11
49 20 31 23 32 49 12 28 -21 53 -20 32 1 -9 8 -16 29 -16 45 0 34 -2 35 -60 8z"></path>
<path d="M650 4195 c0 -20 24 -45 42 -45 17 0 19 2 8 16 -15 17 -50 38 -50 29z"></path>
<path d="M600 4175 c0 -9 -9 -15 -21 -15 -17 0 -19 -3 -10 -14 11 -13 65 -15
78 -3 7 8 -25 47 -39 47 -4 0 -8 -7 -8 -15z"></path>
<path d="M158 4155 c-6 -14 -8 -28 -4 -33 9 -8 36 26 36 45 0 22 -20 14 -32
-12z"></path>
<path d="M2010 4161 c0 -16 29 -33 52 -29 22 3 21 5 -9 21 -36 19 -43 21 -43
8z"></path>
<path d="M950 4138 c-15 -32 -6 -78 16 -78 15 0 36 41 25 50 -4 3 -12 16 -18
30 l-11 25 -12 -27z"></path>
<path d="M470 4140 c0 -18 20 -50 31 -50 18 0 5 55 -13 58 -10 2 -18 -2 -18
-8z"></path>
<path d="M2220 4131 c0 -22 25 -39 38 -27 8 8 -10 38 -26 44 -7 2 -12 -6 -12
-17z"></path>
<path d="M92 4123 c-5 -10 -12 -57 -15 -104 -3 -49 -15 -109 -26 -140 -32 -82
-30 -92 38 -228 17 -35 28 -19 25 36 -2 49 -6 58 -22 61 -32 5 -45 109 -17
132 8 7 15 29 15 49 0 20 7 61 15 91 17 63 19 106 6 115 -6 3 -14 -2 -19 -12z"></path>
<path d="M2105 4130 c-9 -15 4 -30 26 -30 23 0 26 25 3 34 -21 8 -22 8 -29 -4z"></path>
<path d="M2300 4123 c0 -15 15 -29 53 -51 33 -19 37 -20 37 -4 0 9 -18 27 -40
40 -42 24 -50 26 -50 15z"></path>
<path d="M633 4066 c4 -10 7 -22 7 -27 0 -5 5 -9 11 -9 15 0 7 43 -10 48 -10
3 -12 0 -8 -12z"></path>
<path d="M997 4063 c-10 -10 -8 -61 2 -67 11 -7 33 52 25 65 -6 11 -18 12 -27
2z"></path>
<path d="M2417 4063 c-11 -10 -8 -55 3 -48 6 3 10 -1 10 -10 0 -8 11 -20 25
-25 15 -6 25 -17 25 -30 0 -11 5 -20 10 -20 18 0 10 34 -14 59 -14 15 -31 38
-39 53 -8 15 -17 25 -20 21z"></path>
<path d="M824 4020 c-4 -16 -13 -30 -20 -30 -8 0 -14 -7 -14 -16 0 -24 -20 -6
-21 19 0 21 -1 21 -10 -3 -12 -29 -27 -40 -46 -33 -8 3 -13 -2 -13 -16 0 -12
-6 -21 -15 -21 -28 0 -15 -33 27 -72 23 -21 35 -38 28 -38 -8 0 -29 14 -47 32
-22 21 -33 27 -33 17 0 -9 11 -26 25 -39 14 -13 25 -31 25 -39 0 -11 -10 -6
-31 17 -28 30 -49 41 -49 25 0 -4 10 -17 22 -30 12 -13 16 -23 10 -23 -6 0
-14 5 -17 10 -12 20 -35 10 -35 -16 0 -21 -4 -24 -20 -19 -25 8 -27 -11 -3
-37 14 -16 15 -18 0 -18 -22 0 -31 -18 -17 -35 10 -12 7 -16 -13 -24 -21 -8
-46 -31 -34 -31 22 0 66 25 70 41 3 10 13 19 22 19 13 0 16 6 12 21 -5 17 -2
20 14 16 21 -6 35 8 19 18 -16 10 -12 21 8 22 9 1 27 4 40 8 14 5 22 3 22 -4
0 -6 -7 -11 -15 -11 -8 0 -15 -4 -15 -10 0 -12 30 -13 49 -1 9 6 11 18 6 40
-7 35 10 44 20 10 9 -28 29 -19 35 17 l6 29 18 -27 c11 -18 17 -39 14 -58 -3
-16 0 -30 5 -30 5 0 18 -10 29 -22 l19 -23 -5 28 c-7 31 16 39 33 10 16 -30
23 -8 11 36 -12 46 -24 51 -41 20 -11 -21 -11 -21 -30 7 -20 30 -9 60 18 49 8
-3 21 1 28 8 42 37 45 38 45 22 0 -26 16 -17 33 20 17 35 17 36 -9 45 -14 6
-31 10 -39 10 -10 0 -11 9 -4 38 12 51 11 62 -3 60 -7 -2 -14 7 -16 20 -3 22
-4 23 -17 5 -14 -17 -14 -17 -15 2 -1 19 -1 19 -14 3 -16 -22 -26 -23 -26 -3
0 27 -20 16 -26 -15z m96 -77 c0 -19 -3 -21 -22 -14 -24 9 -25 12 -13 50 8 23
9 23 22 6 7 -11 13 -29 13 -42z m-80 12 c7 -9 10 -18 7 -21 -10 -11 -37 5 -37
21 0 19 14 19 30 0z m-57 -103 c10 -10 14 -21 11 -25 -9 -9 -40 9 -48 28 -8
21 17 19 37 -3z"></path>
<path d="M2275 4027 c-4 -10 -5 -21 -1 -24 10 -10 18 4 13 24 -4 17 -4 17 -12
0z"></path>
<path d="M1028 3984 c-10 -19 -18 -43 -18 -52 1 -28 50 35 50 64 0 34 -12 30
-32 -12z"></path>
<path d="M2114 3986 c-3 -14 -4 -33 0 -41 10 -26 26 -16 26 15 0 17 0 33 1 37
2 21 -21 11 -27 -11z"></path>
<path d="M2362 3980 c0 -19 2 -27 5 -17 2 9 2 25 0 35 -3 9 -5 1 -5 -18z"></path>
<path d="M2027 3963 c-4 -3 -7 -11 -7 -17 0 -6 5 -5 12 2 6 6 9 14 7 17 -3 3
-9 2 -12 -2z"></path>
<path d="M2381 3944 c-15 -33 -14 -39 4 -24 27 22 18 -14 -10 -40 -13 -12 -22
-27 -18 -33 4 -6 10 -4 17 5 10 14 48 38 60 38 3 0 6 -7 6 -15 0 -8 5 -15 10
-15 6 0 10 7 10 15 0 8 -5 15 -11 15 -6 0 -9 6 -6 13 6 17 -10 44 -32 56 -15
8 -20 5 -30 -15z"></path>
<path d="M480 3950 c-12 -7 -12 -12 -3 -21 15 -15 26 -7 21 15 -2 11 -7 13
-18 6z"></path>
<path d="M425 3920 c-4 -11 -20 -23 -38 -28 -22 -6 -33 -16 -37 -33 -4 -18
-13 -25 -39 -27 -32 -3 -33 -5 -27 -38 6 -31 5 -34 -19 -34 -22 0 -25 -5 -26
-35 -1 -19 -2 -41 -3 -47 -1 -7 12 -14 28 -16 28 -3 28 -3 21 36 -6 36 -4 40
19 46 26 6 36 39 16 51 -24 15 -7 25 30 19 38 -6 40 -5 40 20 0 16 6 26 15 26
8 0 19 9 25 20 6 11 17 20 25 20 18 0 19 12 3 28 -17 17 -26 15 -33 -8z"></path>
<path d="M2092 3911 c2 -14 9 -26 16 -29 17 -5 15 10 -3 34 -15 18 -15 18 -13
-5z"></path>
<path d="M1026 3894 c-3 -9 -6 -28 -6 -43 0 -24 4 -28 31 -28 26 0 30 3 24 21
-4 12 -9 31 -12 44 -6 25 -28 29 -37 6z"></path>
<path d="M1297 3883 c11 -32 46 -63 70 -63 37 0 27 27 -20 55 -52 30 -58 31
-50 8z"></path>
<path d="M2291 3876 c-15 -18 -5 -79 12 -73 15 4 22 66 9 79 -5 5 -14 3 -21
-6z"></path>
<path d="M1455 3856 c34 -51 100 -73 74 -25 -9 17 -64 49 -84 49 -3 0 2 -11
10 -24z"></path>
<path d="M1245 3840 c16 -30 45 -41 45 -17 0 17 -32 47 -49 47 -8 0 -7 -9 4
-30z"></path>
<path d="M1575 3840 c19 -36 55 -59 55 -35 0 18 -43 65 -60 65 -6 0 -5 -11 5
-30z"></path>
<path d="M2523 3835 c0 -22 2 -30 4 -17 2 12 2 30 0 40 -3 9 -5 -1 -4 -23z"></path>
<path d="M1636 3835 c7 -18 108 -81 102 -63 -4 12 -87 76 -100 77 -4 1 -5 -6
-2 -14z"></path>
<path d="M2443 3835 c-18 -8 -33 -17 -33 -20 0 -7 53 6 64 16 17 16 1 17 -31
4z"></path>
<path d="M1122 3828 c-17 -17 -15 -48 3 -55 22 -8 46 27 34 49 -11 21 -21 22
-37 6z"></path>
<path d="M1929 3826 c7 -9 23 -16 34 -16 26 0 12 15 -23 25 -22 7 -23 6 -11
-9z"></path>
<path d="M980 3790 c0 -18 20 -50 31 -50 18 0 5 55 -13 58 -10 2 -18 -2 -18
-8z"></path>
<path d="M1908 3784 c17 -8 32 -19 32 -24 0 -7 -6 -7 -19 0 -33 17 -38 11 -7
-9 33 -22 46 -19 46 9 0 22 -29 40 -62 39 -20 -1 -19 -2 10 -15z"></path>
<path d="M2415 3790 c-8 -13 25 -13 45 0 12 8 9 10 -12 10 -15 0 -30 -4 -33
-10z"></path>
<path d="M1060 3782 c0 -11 22 -32 32 -32 5 0 4 9 -2 20 -11 20 -30 28 -30 12z"></path>
<path d="M1390 3750 c0 -18 27 -40 50 -40 14 0 -17 47 -36 54 -9 3 -14 -1 -14
-14z"></path>
<path d="M1520 3763 c0 -5 7 -18 15 -29 12 -16 14 -16 15 -3 0 9 -7 22 -15 29
-8 7 -15 8 -15 3z"></path>
<path d="M1825 3750 c10 -11 30 -20 44 -20 l26 1 -24 19 c-13 11 -32 20 -44
20 -19 0 -20 -1 -2 -20z"></path>
<path d="M2076 3755 c-9 -25 -7 -67 3 -61 5 3 12 18 15 32 8 30 -8 55 -18 29z"></path>
<path d="M2300 3759 c0 -5 -5 -7 -10 -4 -6 3 -19 -14 -29 -38 -20 -47 -45 -73
-39 -42 6 32 -22 28 -35 -4 -7 -19 -17 -29 -24 -27 -8 3 -13 -2 -13 -14 0 -27
-18 -26 -22 1 -3 21 -4 21 -30 -6 -15 -15 -31 -24 -37 -21 -5 4 -22 -5 -36
-19 -15 -13 -37 -27 -48 -31 -25 -8 -47 -28 -47 -44 0 -6 7 -22 16 -35 12 -18
20 -22 33 -16 9 5 20 11 26 13 5 1 8 11 7 22 -2 11 1 16 7 12 6 -4 11 -18 11
-32 0 -13 5 -24 10 -24 6 0 10 5 10 12 0 9 3 9 12 0 18 -18 28 -15 28 9 0 32
41 20 65 -18 30 -48 53 -37 56 27 0 8 -2 25 -6 37 -6 18 -2 25 19 33 31 11 35
25 5 17 -14 -4 -3 11 32 43 50 46 54 64 7 39 -25 -13 -35 -4 -18 17 10 11 27
15 63 12 34 -2 52 1 54 10 3 7 -4 12 -16 12 -11 0 -23 5 -26 10 -4 6 7 10 27
10 18 0 40 4 48 10 12 8 12 10 -3 16 -10 3 -31 4 -47 0 -22 -4 -30 -2 -30 9 0
8 -4 15 -10 15 -5 0 -10 -5 -10 -11z m-119 -192 c-7 -17 -16 -25 -24 -21 -9 3
-16 -3 -20 -15 -7 -27 -27 -27 -27 -1 0 11 6 20 13 20 8 0 24 11 37 25 28 30
34 27 21 -8z"></path>
<path d="M1580 3753 c0 -19 11 -43 21 -43 13 0 11 14 -6 36 -8 10 -15 14 -15
7z"></path>
<path d="M1780 3730 c12 -22 49 -45 58 -36 8 9 -39 56 -55 56 -11 0 -11 -5 -3
-20z"></path>
<path d="M1350 3721 c0 -13 29 -35 37 -28 7 8 -15 37 -28 37 -5 0 -9 -4 -9 -9z"></path>
<path d="M2458 3714 c-16 -8 -25 -20 -22 -28 3 -8 -4 -16 -17 -19 -13 -4 -20
-9 -17 -13 13 -13 56 6 72 31 23 35 17 46 -16 29z"></path>
<path d="M1160 3705 c-11 -13 -8 -15 25 -15 25 0 35 4 33 13 -7 18 -43 20 -58
2z"></path>
<path d="M1260 3700 c8 -5 29 -10 45 -10 23 0 27 3 15 10 -8 5 -28 10 -45 10
-23 0 -27 -3 -15 -10z"></path>
<path d="M1679 3665 c-24 -19 -50 -35 -56 -35 -7 0 -13 -6 -13 -14 0 -7 -16
-26 -35 -40 -19 -15 -35 -31 -35 -35 0 -16 28 -20 64 -10 39 11 49 29 15 29
-11 0 -17 5 -14 10 3 6 19 10 35 10 15 0 35 3 44 6 27 10 18 24 -16 24 l-33 0
30 20 c17 11 41 20 55 20 17 0 29 8 37 25 10 23 9 25 -12 25 -12 0 -42 -16
-66 -35z"></path>
<path d="M810 3671 c12 -23 29 -35 37 -27 7 7 -26 46 -39 46 -5 0 -4 -9 2 -19z"></path>
<path d="M1030 3674 c0 -14 38 -39 47 -30 10 10 -5 33 -26 39 -14 3 -21 0 -21
-9z"></path>
<path d="M1974 3675 c-18 -15 -18 -15 10 -13 16 2 31 9 34 16 5 17 -20 15 -44
-3z"></path>
<path d="M165 3663 c35 -9 37 -20 6 -31 -49 -17 -39 -36 15 -28 26 3 55 6 65
6 11 0 19 5 19 10 0 14 -79 50 -105 49 l-20 -1 20 -5z"></path>
<path d="M735 3660 c-8 -13 3 -30 20 -30 20 0 30 21 14 31 -18 11 -26 11 -34
-1z"></path>
<path d="M1453 3635 c28 -25 57 -33 57 -17 0 17 -37 42 -61 42 l-24 -1 28 -24z"></path>
<path d="M1826 3651 c-4 -6 -13 -8 -20 -5 -8 3 -17 1 -20 -4 -3 -6 8 -15 26
-21 40 -14 48 -14 48 3 0 19 -26 40 -34 27z"></path>
<path d="M1883 3645 c-3 -9 -3 -18 0 -21 7 -8 47 15 47 26 0 16 -40 11 -47 -5z"></path>
<path d="M910 3642 c0 -10 22 -32 32 -32 15 0 8 15 -12 28 -11 7 -20 9 -20 4z"></path>
<path d="M1390 3641 c0 -11 39 -41 53 -41 13 0 -12 29 -35 41 -12 6 -18 6 -18
0z"></path>
<path d="M1250 3631 c-22 -6 -23 -8 -7 -14 29 -11 62 -8 83 8 18 13 17 14 -16
14 -19 -1 -46 -4 -60 -8z"></path>
<path d="M670 3605 c0 -8 5 -15 10 -15 6 0 10 7 10 15 0 8 -4 15 -10 15 -5 0
-10 -7 -10 -15z"></path>
<path d="M714 3607 c-8 -22 3 -37 27 -37 24 0 24 12 -1 35 -17 16 -20 16 -26
2z"></path>
<path d="M1050 3610 c0 -5 9 -10 20 -10 11 0 20 5 20 10 0 6 -9 10 -20 10 -11
0 -20 -4 -20 -10z"></path>
<path d="M900 3580 c11 -20 30 -28 30 -12 0 11 -22 32 -32 32 -5 0 -4 -9 2
-20z"></path>
<path d="M153 3571 c-23 -11 -47 -29 -53 -41 -11 -20 -10 -21 12 -15 27 9 69
37 88 60 16 20 4 19 -47 -4z"></path>
<path d="M846 3581 c-4 -5 -3 -16 0 -25 4 -11 1 -16 -11 -16 -13 0 -16 -6 -11
-25 5 -18 2 -25 -8 -25 -16 0 -41 -38 -32 -47 8 -8 104 79 105 95 2 33 -30 65
-43 43z"></path>
<path d="M1201 3577 c-41 -20 -37 -35 7 -27 52 9 69 20 51 31 -19 12 -30 11
-58 -4z"></path>
<path d="M2300 3570 c-11 -11 -20 -32 -20 -47 0 -25 1 -24 30 15 17 23 30 44
30 47 0 12 -21 4 -40 -15z"></path>
<path d="M1718 3559 c-25 -14 -22 -31 4 -27 13 2 24 11 26 21 4 19 -5 21 -30
6z"></path>
<path d="M1335 3530 c3 -5 18 -10 33 -10 21 0 24 2 12 10 -20 13 -53 13 -45 0z"></path>
<path d="M1615 3496 c-54 -21 -62 -27 -77 -67 -10 -24 -17 -55 -16 -69 1 -14
-3 -35 -10 -47 -14 -26 -15 -33 -4 -33 5 0 17 18 27 40 15 33 22 39 40 34 13
-3 26 0 31 7 5 9 2 11 -8 6 -9 -3 -24 1 -35 9 -17 13 -17 15 10 37 32 27 35
41 6 32 -15 -5 -20 -3 -17 6 2 7 31 21 63 30 32 10 63 23 68 28 17 17 -11 13
-78 -13z"></path>
<path d="M218 3502 c-10 -2 -18 -8 -18 -13 0 -13 27 -11 35 2 9 13 4 16 -17
11z"></path>
<path d="M1855 3497 c-11 -7 -21 -12 -23 -13 -1 -1 0 -9 4 -18 8 -20 38 -21
58 0 35 35 6 58 -39 31z"></path>
<path d="M88 3493 c-10 -2 -18 -9 -18 -14 0 -15 53 -6 58 9 4 12 -8 14 -40 5z"></path>
<path d="M1423 3394 c-56 -57 -106 -104 -111 -104 -14 0 -42 -35 -42 -53 0
-11 8 -17 23 -18 l22 0 -22 -9 c-30 -12 -29 -28 2 -36 27 -7 33 -20 13 -27 -7
-2 10 -15 37 -28 28 -13 52 -25 54 -26 2 -1 -2 -9 -9 -18 -11 -13 -9 -15 13
-15 38 0 52 23 32 54 -9 14 -14 30 -10 36 8 13 -11 13 -37 -1 -20 -11 -21 -9
-16 29 7 47 2 55 -23 41 -13 -7 -19 -6 -19 1 0 6 7 13 15 16 8 4 15 14 15 23
0 21 56 55 77 47 14 -6 13 -10 -7 -31 -18 -19 -21 -28 -12 -37 14 -14 51 15
50 40 0 10 3 26 7 36 8 17 5 19 -23 13 -46 -9 -48 9 -4 32 33 17 39 24 35 44
-4 20 2 29 26 43 30 18 40 38 23 48 -4 2 -53 -43 -109 -100z"></path>
<path d="M1660 3470 c0 -5 6 -10 14 -10 8 0 18 5 21 10 3 6 -3 10 -14 10 -12
0 -21 -4 -21 -10z"></path>
<path d="M85 3446 c-22 -16 -33 -84 -34 -209 -1 -85 9 -127 29 -127 6 0 10 9
10 20 0 12 10 40 22 63 29 58 40 107 23 107 -8 0 -19 -16 -25 -35 -6 -19 -16
-38 -22 -41 -7 -4 -8 -2 -4 4 4 7 11 53 15 104 5 51 12 101 16 111 9 20 -4 22
-30 3z"></path>
<path d="M213 3434 c-14 -14 -22 -28 -19 -31 8 -8 58 28 64 45 7 21 -18 13
-45 -14z"></path>
<path d="M1810 3435 c0 -8 7 -15 15 -15 8 0 15 7 15 15 0 8 -7 15 -15 15 -8 0
-15 -7 -15 -15z"></path>
<path d="M2848 3439 c-24 -14 -22 -24 7 -37 22 -10 25 -9 25 8 0 20 0 20 40 0
43 -22 60 -45 60 -82 0 -22 -1 -21 -18 7 -19 30 -52 63 -52 51 0 -3 9 -15 20
-26 11 -11 20 -27 20 -36 0 -11 -11 -5 -37 20 -21 20 -43 36 -51 36 -7 0 6
-18 29 -40 23 -22 39 -43 35 -48 -4 -4 -18 5 -30 21 -25 31 -42 36 -26 8 5
-11 10 -53 10 -93 0 -46 6 -84 16 -103 8 -16 13 -38 10 -49 -3 -10 6 -45 20
-77 30 -74 30 -80 -3 -73 -17 3 -36 -1 -48 -10 -20 -15 -20 -15 5 -16 14 0 35
-3 47 -6 18 -5 25 -1 33 20 13 36 28 33 26 -5 -1 -28 3 -33 39 -43 22 -7 53
-21 67 -30 26 -17 27 -19 13 -46 -20 -39 -19 -47 5 -25 11 10 20 29 20 43 0
19 4 23 20 19 23 -6 23 -8 7 60 l-12 53 -38 -20 c-36 -19 -87 -26 -100 -14
-12 12 6 34 29 34 12 0 35 10 50 23 23 21 25 26 15 46 -17 31 -3 41 19 14 10
-13 21 -23 24 -23 13 0 5 29 -13 51 -18 22 -21 23 -55 11 -40 -15 -100 -7 -93
11 2 7 19 11 41 9 20 -2 36 2 36 8 0 6 -23 10 -53 10 -54 0 -54 0 -70 40 -8
22 -12 40 -7 40 5 0 11 -6 13 -12 4 -9 8 -10 14 -3 4 6 19 15 33 21 21 9 26 8
35 -10 14 -29 55 -34 55 -7 0 31 -22 72 -36 67 -18 -7 -72 16 -79 32 -4 12 4
14 51 8 52 -6 55 -5 49 13 -13 42 13 27 46 -26 42 -70 95 -134 103 -126 15 15
3 48 -28 77 -18 17 -49 57 -69 88 -34 53 -85 94 -109 86 -6 -2 2 -18 17 -36
16 -19 25 -39 21 -48 -9 -22 -19 -12 -50 50 -16 31 -33 56 -40 57 -6 0 -2 4 9
8 17 7 14 10 -20 20 -49 13 -75 14 -97 0z"></path>
<path d="M1615 3420 c-15 -16 -15 -20 -3 -20 8 0 23 9 33 20 15 16 15 20 3 20
-8 0 -23 -9 -33 -20z"></path>
<path d="M2324 3416 c-8 -21 -1 -49 14 -54 8 -2 12 7 12 27 0 33 -17 51 -26
27z"></path>
<path d="M466 3404 c-9 -24 -7 -28 9 -14 17 14 20 30 6 30 -5 0 -12 -7 -15
-16z"></path>
<path d="M1932 3395 c2 -19 9 -31 21 -33 23 -5 22 10 -3 39 l-20 24 2 -30z"></path>
<path d="M1990 3391 c0 -21 5 -31 16 -31 11 0 14 8 12 27 -4 39 -28 42 -28 4z"></path>
<path d="M2035 3408 c-9 -23 2 -51 17 -46 18 6 20 22 4 43 -14 19 -15 19 -21
3z"></path>
<path d="M2240 3406 c0 -8 4 -17 9 -20 10 -7 23 19 14 28 -11 11 -23 6 -23 -8z"></path>
<path d="M238 3374 c-43 -28 -49 -44 -15 -44 23 0 67 33 67 50 0 19 -16 17
-52 -6z"></path>
<path d="M2090 3381 c0 -12 5 -21 10 -21 6 0 10 6 10 14 0 8 -4 18 -10 21 -5
3 -10 -3 -10 -14z"></path>
<path d="M2137 3385 c-8 -20 3 -47 17 -42 6 2 11 14 11 27 0 27 -20 38 -28 15z"></path>
<path d="M1842 3368 c16 -24 58 -37 58 -19 0 13 -40 41 -58 41 -12 0 -12 -4 0
-22z"></path>
<path d="M2382 3349 c2 -18 9 -34 16 -37 10 -3 13 5 10 29 -2 18 -9 34 -16 37
-10 3 -13 -5 -10 -29z"></path>
<path d="M445 3350 c-3 -5 3 -10 14 -10 12 0 21 5 21 10 0 6 -6 10 -14 10 -8
0 -18 -4 -21 -10z"></path>
<path d="M1780 3350 c-12 -7 -12 -10 2 -15 9 -4 25 -5 35 -3 17 4 16 5 -3 15
-12 7 -26 8 -34 3z"></path>
<path d="M2224 3338 c-5 -7 -2 -9 9 -5 11 4 17 -1 19 -15 4 -27 28 -36 28 -11
0 35 -40 57 -56 31z"></path>
<path d="M1693 3326 c5 -16 54 -42 63 -33 4 3 2 13 -5 21 -15 17 -63 28 -58
12z"></path>
<path d="M242 3307 c-13 -13 -22 -36 -22 -53 l0 -29 21 25 c11 14 26 37 35 53
19 35 -2 38 -34 4z"></path>
<path d="M403 3298 c2 -7 10 -13 17 -13 7 0 15 6 18 13 2 7 -5 12 -18 12 -13
0 -20 -5 -17 -12z"></path>
<path d="M1527 3268 c-54 -60 -50 -112 7 -82 33 16 60 19 51 4 -3 -5 1 -10 9
-10 24 0 28 18 9 39 -43 47 -46 52 -34 64 6 6 11 15 11 19 0 17 -17 6 -53 -34z"></path>
<path d="M1792 3293 c4 -22 38 -30 38 -10 0 8 -7 18 -16 21 -23 9 -26 8 -22
-11z"></path>
<path d="M2420 3300 c0 -18 20 -50 31 -50 18 0 5 55 -13 58 -10 2 -18 -2 -18
-8z"></path>
<path d="M1657 3276 c-8 -19 1 -26 34 -26 32 0 48 18 28 31 -21 13 -56 11 -62
-5z"></path>
<path d="M256 3238 c-19 -27 -21 -51 -4 -46 15 5 42 68 29 68 -6 0 -17 -10
-25 -22z"></path>
<path d="M2477 3231 c-7 -29 3 -68 23 -86 18 -16 19 -15 25 19 11 54 -35 117
-48 67z"></path>
<path d="M417 3223 c-22 -6 -12 -23 14 -23 10 0 19 7 19 15 0 15 -2 16 -33 8z"></path>
<path d="M2276 3194 c-3 -9 -11 -12 -18 -8 -7 5 -24 8 -38 8 -21 0 -26 -5 -28
-32 -3 -33 6 -40 26 -20 7 7 12 8 12 4 0 -5 7 -3 15 4 12 10 13 7 5 -22 -15
-49 -12 -58 13 -58 37 0 50 15 43 45 -7 26 -8 27 -26 10 -25 -23 -25 -14 0 35
11 22 20 42 20 45 0 12 -18 4 -24 -11z"></path>
<path d="M274 3175 c-3 -14 -4 -29 0 -32 8 -8 36 28 33 41 -7 21 -27 16 -33
-9z"></path>
<path d="M2127 3183 c-26 -13 -27 -16 -14 -36 20 -30 37 -33 29 -5 -5 21 -4
22 12 9 21 -18 29 -10 20 23 -7 29 -8 30 -47 9z"></path>
<path d="M133 3154 c-10 -15 -28 -37 -40 -51 -13 -13 -23 -30 -23 -37 0 -7 -8
-24 -19 -37 -14 -18 -20 -48 -24 -129 -3 -58 -9 -115 -12 -126 -5 -16 -2 -23
14 -27 27 -7 27 -23 1 -30 -12 -3 -20 -14 -20 -26 0 -19 6 -21 66 -21 42 0 63
-4 59 -10 -4 -6 -26 -8 -55 -4 -57 8 -94 -1 -70 -16 9 -6 58 -7 117 -4 110 7
169 -3 98 -17 -22 -4 -67 -9 -100 -9 -33 -1 -71 -6 -85 -10 -14 -5 40 -7 130
-4 l155 4 -90 -16 c-50 -8 -109 -13 -132 -10 -43 6 -93 -6 -93 -22 0 -4 24
-16 54 -26 52 -18 61 -18 183 -3 70 8 157 15 192 15 35 0 68 5 74 11 14 14 1
14 -168 1 -71 -5 -143 -6 -160 -1 -22 6 6 9 100 13 128 5 185 17 185 38 0 8
-19 9 -57 5 l-58 -6 24 19 c31 25 11 38 -28 17 -35 -18 -51 -19 -51 -5 0 11 7
14 53 24 52 12 29 28 -35 26 -85 -3 -98 -2 -98 10 0 6 8 10 18 11 11 1 9 4 -8
9 -14 4 -42 5 -62 3 -36 -5 -52 7 -28 22 24 15 8 27 -27 21 l-38 -6 28 21 c32
25 35 39 7 39 -18 0 -19 3 -10 20 8 16 8 20 -4 20 -23 0 -30 19 -29 87 1 55 6
72 41 131 39 65 59 112 48 112 -3 0 -13 -12 -23 -26z"></path>
<path d="M2370 3160 c0 -5 9 -10 20 -10 11 0 20 5 20 10 0 6 -9 10 -20 10 -11
0 -20 -4 -20 -10z"></path>
<path d="M1595 3140 l-19 -21 44 3 c32 2 45 7 45 18 0 24 -48 24 -70 0z"></path>
<path d="M2671 3151 c-11 -7 -4 -12 25 -20 51 -14 59 -14 73 3 9 11 7 15 -11
20 -33 8 -71 7 -87 -3z"></path>
<path d="M1490 3125 c-12 -15 -10 -16 26 -13 42 3 50 21 11 26 -13 2 -30 -4
-37 -13z"></path>
<path d="M2577 3133 c-2 -5 -7 -25 -11 -46 -6 -34 -5 -38 11 -33 15 5 18 0 18
-27 0 -22 5 -32 15 -32 21 0 26 68 6 85 -9 7 -16 23 -16 36 0 23 -14 33 -23
17z"></path>
<path d="M3220 3119 c0 -29 18 -59 35 -59 18 0 18 2 1 45 -17 39 -36 46 -36
14z"></path>
<path d="M171 3104 c-29 -37 -26 -57 5 -36 11 7 34 45 34 56 0 14 -20 4 -39
-20z"></path>
<path d="M1479 3084 c-11 -14 -10 -15 11 -12 13 1 25 9 28 16 5 17 -23 15 -39
-4z"></path>
<path d="M2410 3060 c-13 -47 -34 -62 -68 -49 -32 12 -43 2 -18 -17 25 -18 40
-18 75 1 31 15 57 65 47 90 -10 26 -25 16 -36 -25z"></path>
<path d="M2298 3069 c-21 -12 -24 -41 -5 -33 8 3 25 0 39 -5 18 -7 29 -6 37 2
16 16 14 27 -4 21 -11 -5 -13 -2 -9 10 5 12 0 16 -17 16 -13 0 -32 -5 -41 -11z"></path>
<path d="M212 3043 c-24 -25 -25 -28 -8 -31 19 -4 67 26 74 46 7 23 -39 12
-66 -15z"></path>
<path d="M1458 3034 c-16 -8 -37 -32 -48 -53 -18 -36 -18 -40 -2 -46 21 -8 52
28 52 60 0 14 7 25 20 28 11 3 20 10 20 16 0 14 -9 13 -42 -5z"></path>
<path d="M3290 3024 c0 -5 12 -29 26 -54 15 -25 30 -56 34 -70 8 -23 8 -23 9
8 1 18 -5 45 -13 60 -15 30 -56 71 -56 56z"></path>
<path d="M330 3005 c-19 -7 -45 -14 -57 -14 -16 -1 -23 -7 -23 -21 0 -11 1
-20 3 -20 7 0 139 50 154 59 28 16 -33 13 -77 -4z"></path>
<path d="M1675 3010 c3 -5 15 -10 26 -10 10 0 19 5 19 10 0 6 -12 10 -26 10
-14 0 -23 -4 -19 -10z"></path>
<path d="M1233 2973 c-7 -2 -13 -11 -13 -19 0 -12 4 -12 20 -4 32 17 26 37 -7
23z"></path>
<path d="M1638 2964 c-16 -8 -28 -21 -28 -28 0 -11 7 -11 43 1 78 26 73 23 57
33 -21 13 -40 12 -72 -6z"></path>
<path d="M2629 2973 c-1 -5 -1 -12 0 -16 1 -4 -3 -17 -9 -27 -10 -19 -13 -19
-41 -4 -40 20 -47 12 -13 -15 48 -38 84 -19 84 43 0 23 -18 38 -21 19z"></path>
<path d="M2363 2950 c-18 -10 -40 -34 -49 -52 l-17 -32 28 18 c16 10 48 34 72
52 39 30 41 34 21 34 -13 0 -37 -9 -55 -20z"></path>
<path d="M2700 2955 c-18 -21 -3 -32 16 -13 10 9 12 18 6 22 -5 3 -15 -1 -22
-9z"></path>
<path d="M2757 2940 c-29 -23 -35 -40 -14 -40 18 0 50 36 45 50 -2 7 -14 3
-31 -10z"></path>
<path d="M435 2930 c-20 -22 -91 -47 -102 -37 -3 4 2 17 13 28 l19 22 -30 -16
c-17 -8 -39 -24 -49 -36 -17 -19 -17 -21 -2 -27 9 -3 30 -4 46 -1 29 6 49 -6
30 -18 -18 -11 -11 -35 10 -35 11 0 29 -5 40 -12 15 -10 22 -9 39 6 34 31 39
-6 7 -54 -26 -40 -22 -49 14 -30 24 13 35 -2 21 -28 -9 -17 -7 -18 13 -15 17
4 31 21 51 64 30 63 27 90 -7 49 l-20 -25 6 32 c3 18 1 35 -4 38 -6 3 -10 -1
-10 -9 0 -8 -4 -17 -8 -20 -5 -3 -8 15 -7 39 1 25 0 45 -3 45 -2 0 -22 -16
-43 -35 -39 -35 -62 -42 -87 -26 -10 6 0 18 37 45 32 22 51 43 51 56 0 25 -2
25 -25 0z"></path>
<path d="M2806 2934 c-19 -19 -21 -44 -3 -44 19 0 37 21 37 42 0 22 -13 23
-34 2z"></path>
<path d="M1238 2929 c-10 -5 -18 -14 -18 -19 0 -14 34 -12 48 2 26 26 5 38
-30 17z"></path>
<path d="M603 2904 c-37 -19 -45 -39 -10 -29 24 8 68 45 52 45 -6 0 -25 -8
-42 -16z"></path>
<path d="M1402 2898 c-13 -13 -16 -48 -4 -48 14 0 32 23 32 42 0 21 -11 23
-28 6z"></path>
<path d="M1682 2887 c-26 -10 -30 -15 -20 -25 10 -10 5 -18 -22 -43 l-35 -30
58 4 c32 2 63 10 70 17 10 10 7 11 -16 6 -45 -11 -52 4 -18 35 29 26 41 50 24
48 -5 0 -23 -6 -41 -12z"></path>
<path d="M976 2874 c-11 -28 -6 -39 9 -20 8 11 15 23 15 28 0 14 -18 9 -24 -8z"></path>
<path d="M1587 2883 c-4 -3 -7 -12 -7 -20 0 -20 28 -15 40 7 9 17 8 20 -8 20
-10 0 -22 -3 -25 -7z"></path>
<path d="M3460 2880 c0 -19 46 -39 106 -45 34 -4 66 -10 71 -14 4 -3 7 -32 5
-64 l-4 -59 -33 6 c-18 4 -36 2 -39 -3 -3 -5 12 -12 35 -16 82 -14 284 17 337
52 37 23 18 27 -36 8 l-49 -18 -54 26 c-29 15 -59 27 -66 27 -7 0 -19 12 -27
28 -8 15 -28 40 -44 55 -25 24 -33 27 -50 18 -26 -14 -92 -14 -126 -1 -16 6
-26 6 -26 0z m256 -146 c-3 -9 -6 -18 -6 -20 0 -2 -7 -4 -15 -4 -13 0 -14 4
-5 20 13 24 35 27 26 4z"></path>
<path d="M2674 2843 c36 -38 57 -41 35 -5 -11 18 -49 42 -66 42 -3 0 11 -17
31 -37z"></path>
<path d="M3367 2873 c-3 -5 -8 -24 -12 -43 -20 -92 -106 -210 -155 -210 -69 0
-99 -12 -109 -43 -6 -16 -10 -46 -10 -66 l2 -36 6 35 6 35 55 -3 c30 -1 85
-10 122 -19 37 -9 71 -13 75 -9 11 11 -14 23 -78 35 -32 7 -61 16 -64 21 -4 6
-2 10 4 10 15 0 124 118 143 155 25 47 39 178 15 138z"></path>
<path d="M1209 2851 c-13 -11 -21 -23 -17 -26 9 -9 58 21 58 35 0 15 -15 12
-41 -9z"></path>
<path d="M2104 2818 c-3 -10 -15 -18 -28 -18 -13 0 -29 -6 -35 -14 -10 -12 -8
-17 8 -25 25 -14 51 -14 51 -1 0 6 11 10 25 10 16 0 25 6 25 15 0 8 7 15 15
15 8 0 15 8 15 18 0 14 -8 18 -35 18 -25 0 -37 -5 -41 -18z"></path>
<path d="M2926 2815 c-9 -24 -7 -45 3 -45 12 0 22 43 12 53 -5 5 -11 1 -15 -8z"></path>
<path d="M2737 2793 c-6 -31 0 -46 14 -38 12 8 12 65 0 65 -5 0 -11 -12 -14
-27z"></path>
<path d="M2887 2814 c-10 -10 -9 -64 2 -64 12 0 21 41 12 57 -4 7 -10 10 -14
7z"></path>
<path d="M1385 2799 c-4 -6 -5 -13 -2 -15 7 -8 57 7 57 17 0 13 -47 11 -55 -2z"></path>
<path d="M757 2768 c-8 -55 8 -54 19 0 4 19 2 32 -4 32 -5 0 -12 -15 -15 -32z"></path>
<path d="M999 2778 c-41 -25 -67 -86 -48 -116 8 -13 6 -28 -10 -62 -23 -51
-20 -61 9 -35 16 14 20 31 20 79 0 84 7 101 46 119 19 9 34 21 34 27 0 14 -10
12 -51 -12z"></path>
<path d="M2834 2786 c-4 -10 -2 -22 4 -28 8 -8 13 -7 18 6 4 10 2 22 -4 28 -8
8 -13 7 -18 -6z"></path>
<path d="M2966 2784 c-8 -21 -8 -24 3 -24 5 0 11 9 14 20 6 24 -8 27 -17 4z"></path>
<path d="M695 2759 c-14 -63 -109 -138 -175 -139 -23 0 -23 -1 -7 -17 16 -16
20 -15 77 12 85 41 130 94 130 156 0 30 -18 22 -25 -12z"></path>
<path d="M818 2767 c-5 -10 -8 -31 -8 -47 0 -31 -53 -80 -136 -126 l-49 -26
42 6 c25 4 43 2 45 -5 7 -20 39 4 59 42 21 42 45 54 33 17 -3 -13 -11 -29 -17
-36 -5 -7 -7 -16 -3 -20 12 -12 35 28 41 72 8 55 3 147 -7 123z"></path>
<path d="M1662 2758 c-23 -26 -46 -78 -33 -78 4 0 16 9 26 20 18 20 45 27 45
12 0 -5 -9 -17 -20 -27 -28 -25 -25 -37 8 -28 l27 6 -32 -37 c-36 -40 -41 -56
-18 -56 14 0 24 12 70 83 23 35 23 37 5 37 -11 0 -20 5 -20 10 0 6 16 10 35
10 53 0 42 18 -12 22 -43 3 -48 5 -45 26 2 12 -1 22 -6 22 -5 0 -18 -10 -30
-22z"></path>
<path d="M2360 2770 c0 -5 12 -10 26 -10 14 0 23 4 19 10 -3 6 -15 10 -26 10
-10 0 -19 -4 -19 -10z"></path>
<path d="M3042 2760 c-16 -27 -15 -30 8 -30 15 0 20 7 20 25 0 30 -11 32 -28
5z"></path>
<path d="M1220 2750 c-14 -11 -33 -20 -42 -20 -11 0 -18 -8 -18 -19 0 -11 -8
-26 -17 -33 -18 -13 -26 -70 -17 -115 8 -40 24 -25 24 22 0 35 6 52 25 70 13
14 29 25 35 25 5 0 10 8 10 19 0 10 9 30 21 45 24 31 14 34 -21 6z"></path>
<path d="M1398 2754 c-16 -8 -28 -19 -28 -24 0 -18 28 -10 57 15 32 28 15 33
-29 9z"></path>
<path d="M2770 2746 c-13 -36 -1 -51 35 -42 23 6 25 9 12 19 -8 7 -19 21 -25
32 -10 19 -11 18 -22 -9z"></path>
<path d="M569 2708 c-9 -32 -12 -58 -7 -58 13 0 29 51 26 84 -3 27 -5 24 -19
-26z"></path>
<path d="M1111 2731 c-7 -12 -17 -18 -26 -15 -11 5 -15 -2 -15 -27 0 -19 -5
-41 -10 -49 -7 -11 -10 -4 -10 28 0 47 -15 57 -24 15 -7 -37 18 -184 27 -159
4 10 7 32 7 49 0 18 9 48 20 67 31 53 52 102 46 107 -2 3 -9 -5 -15 -16z"></path>
<path d="M2274 2725 c-11 -17 -14 -34 -9 -53 4 -15 8 -42 8 -59 0 -21 6 -33
14 -33 8 0 12 -4 8 -10 -3 -5 -3 -21 1 -35 5 -20 11 -24 27 -19 17 5 17 2 -8
-30 l-27 -36 23 0 c35 0 51 14 63 52 8 22 18 34 34 36 12 2 22 7 22 11 0 14
-26 31 -35 23 -4 -4 -2 4 5 17 11 22 9 26 -19 48 -17 14 -31 34 -31 46 -1 20
-2 21 -14 5 -21 -29 -29 -21 -22 22 5 32 3 40 -9 40 -8 0 -22 -11 -31 -25z"></path>
<path d="M3203 2725 c0 -8 6 -15 13 -15 6 0 14 7 18 15 3 10 -1 15 -13 15 -10
0 -18 -7 -18 -15z"></path>
<path d="M1435 2692 c-18 -22 -28 -46 -27 -59 2 -16 -2 -23 -13 -23 -12 0 -15
6 -10 20 3 11 2 20 -3 20 -10 0 -32 -67 -32 -99 0 -20 1 -21 16 -7 19 20 34
20 34 2 0 -23 42 -126 51 -126 5 0 9 12 9 28 0 15 9 41 19 59 21 33 18 43 -11
43 -25 0 -23 9 9 42 35 37 25 44 -17 13 -59 -43 -60 -29 -7 58 37 60 24 82
-18 29z"></path>
<path d="M1292 2696 c-6 -14 -31 -36 -56 -51 -45 -26 -63 -50 -46 -60 6 -4 10
-15 10 -26 0 -29 17 -14 25 22 5 20 16 34 32 40 35 13 38 7 14 -40 -32 -61
-26 -77 12 -34 35 40 92 142 83 150 -2 3 -15 -2 -28 -11 -31 -22 -39 -20 -32
9 8 32 1 32 -14 1z m38 -43 c0 -5 -7 -17 -15 -27 -15 -20 -20 -10 -9 18 6 16
24 22 24 9z"></path>
<path d="M1890 2705 c14 -16 40 -20 40 -6 0 9 -24 21 -42 21 -6 0 -6 -6 2 -15z"></path>
<path d="M2440 2699 c0 -25 58 -85 70 -73 5 5 12 22 16 38 6 24 4 28 -9 23 -8
-3 -23 3 -33 14 -23 25 -44 24 -44 -2z"></path>
<path d="M2790 2669 c0 -24 23 -21 28 4 2 10 -3 17 -12 17 -10 0 -16 -9 -16
-21z"></path>
<path d="M852 2636 c-7 -18 -12 -43 -12 -57 1 -22 3 -21 20 11 21 38 25 66 12
74 -5 3 -14 -10 -20 -28z"></path>
<path d="M2616 2645 c-3 -9 0 -15 9 -15 8 0 15 7 15 15 0 8 -4 15 -9 15 -5 0
-11 -7 -15 -15z"></path>
<path d="M3525 2640 c86 -11 217 -12 211 -1 -3 5 -65 8 -138 8 -106 0 -121 -2
-73 -7z"></path>
<path d="M4570 2624 c34 -43 94 -83 125 -84 19 0 19 0 0 18 -32 30 -143 88
-125 66z"></path>
<path d="M904 2606 c-9 -15 -14 -29 -12 -32 3 -2 13 7 22 22 10 14 15 28 13
31 -3 2 -13 -7 -23 -21z"></path>
<path d="M1084 2606 c-8 -33 -2 -69 14 -74 8 -2 12 10 12 42 0 50 -16 70 -26
32z"></path>
<path d="M1757 2623 c-4 -3 -7 -14 -7 -24 0 -10 -9 -23 -20 -29 -27 -14 -25
-32 2 -28 20 3 68 59 68 79 0 11 -34 12 -43 2z"></path>
<path d="M2525 2620 c-7 -12 44 -62 59 -57 17 6 19 27 2 27 -10 0 -13 6 -10
15 5 11 2 13 -10 9 -9 -3 -16 -1 -16 5 0 14 -17 14 -25 1z"></path>
<path d="M2689 2601 c-25 -20 -23 -36 4 -25 15 5 31 33 24 41 -2 2 -15 -5 -28
-16z"></path>
<path d="M2776 2601 c-9 -14 58 -25 110 -17 85 11 78 23 -14 25 -51 1 -93 -3
-96 -8z"></path>
<path d="M3026 2567 c-5 -15 -6 -31 -2 -34 11 -11 18 5 14 34 l-4 28 -8 -28z"></path>
<path d="M4750 2535 c0 -9 24 -38 53 -65 28 -27 70 -68 92 -90 37 -37 85 -54
85 -30 0 15 -38 50 -54 50 -8 0 -47 34 -87 75 -74 77 -89 87 -89 60z"></path>
<path d="M550 2529 c-30 -5 -131 -12 -224 -18 -93 -6 -171 -12 -173 -15 -3 -2
5 -10 18 -16 21 -12 79 -10 157 6 21 4 32 3 32 -5 0 -6 -11 -11 -25 -11 -14 0
-25 -5 -25 -11 0 -12 3 -11 150 11 90 14 161 8 127 -12 -10 -5 -61 -16 -114
-23 -52 -7 -100 -19 -107 -25 -21 -23 142 -3 244 29 158 51 167 36 12 -19 -51
-18 -95 -36 -98 -41 -6 -10 287 89 300 101 22 22 -94 25 -148 4 -15 -6 -17 -3
-12 14 7 21 6 21 -29 6 -41 -17 -55 -13 -35 11 18 21 13 22 -50 14z"></path>
<path d="M1523 2522 c-17 -3 -24 -14 -33 -54 -13 -61 -6 -74 14 -26 15 35 39
53 57 42 13 -8 11 8 -4 26 -7 8 -22 14 -34 12z"></path>
<path d="M1728 2499 c-16 -9 -26 -49 -14 -49 12 0 76 43 76 51 0 12 -41 11
-62 -2z"></path>
<path d="M2515 2499 c-11 -4 -31 -10 -45 -13 -14 -3 -34 -12 -45 -21 -19 -15
-17 -15 33 -10 41 6 52 4 52 -8 0 -14 30 -47 44 -47 3 0 -4 14 -16 30 -19 27
-21 34 -9 51 15 25 12 29 -14 18z"></path>
<path d="M2788 2497 c-41 -16 -35 -34 10 -33 29 1 37 5 37 20 0 24 -12 27 -47
13z"></path>
<path d="M1150 2490 c-8 -5 -11 -12 -8 -16 10 -9 38 3 38 16 0 12 -10 13 -30
0z"></path>
<path d="M2666 2486 c7 -19 50 -47 58 -39 11 12 6 32 -7 27 -8 -3 -20 2 -27
11 -16 19 -31 20 -24 1z"></path>
<path d="M2630 2482 c0 -5 9 -17 20 -27 22 -20 26 -14 10 16 -11 19 -30 26
-30 11z"></path>
<path d="M2882 2481 c-14 -8 -7 -61 8 -61 10 0 20 26 20 51 0 21 -8 23 -28 10z"></path>
<path d="M868 2464 c-26 -8 -49 -18 -52 -23 -9 -14 87 8 103 24 18 18 10 18
-51 -1z"></path>
<path d="M2556 2460 c8 -31 24 -50 24 -29 0 8 -7 24 -16 35 -14 18 -15 18 -8
-6z"></path>
<path d="M2957 2444 c-19 -39 -15 -57 8 -33 16 17 31 69 19 69 -5 0 -17 -17
-27 -36z"></path>
<path d="M919 2441 c-86 -23 -204 -79 -169 -80 24 0 275 81 287 93 12 12 -53
5 -118 -13z"></path>
<path d="M994 2411 c-43 -21 -96 -44 -116 -50 -20 -7 -42 -19 -49 -27 -26 -32
6 -25 92 19 63 33 101 47 127 46 l37 -1 -52 -16 c-50 -16 -78 -32 -56 -32 6 0
41 9 78 21 64 19 115 19 115 0 0 -5 -26 -12 -57 -16 -32 -4 -71 -13 -88 -20
l-30 -13 32 -1 c17 -1 69 8 115 19 46 11 104 20 131 20 26 0 47 5 47 10 0 6
-10 10 -22 10 -13 0 -43 9 -67 20 -24 11 -56 20 -71 20 -15 0 -33 7 -40 15
-19 23 -39 19 -126 -24z"></path>
<path d="M1518 2418 c-20 -41 -23 -58 -8 -58 15 0 31 39 28 68 -3 27 -3 27
-20 -10z"></path>
<path d="M1593 2400 c-47 -53 -60 -100 -22 -80 11 7 27 9 35 6 19 -7 18 8 -1
24 -19 16 -19 30 0 30 15 0 39 45 33 60 -2 4 -22 -14 -45 -40z"></path>
<path d="M1725 2430 c-14 -16 -16 -23 -7 -32 10 -10 20 -5 44 20 l33 32 -26 0
c-14 0 -34 -9 -44 -20z"></path>
<path d="M2989 2429 c-9 -17 -8 -20 3 -17 7 3 18 -2 24 -10 19 -26 36 -4 18
24 -20 30 -30 30 -45 3z"></path>
<path d="M710 2415 c-19 -7 -62 -21 -95 -30 -68 -20 -92 -35 -54 -35 30 0 99
21 162 50 69 31 59 42 -13 15z"></path>
<path d="M2315 2419 c-4 -6 -19 -7 -36 -4 -22 5 -29 3 -29 -9 0 -8 9 -17 20
-21 24 -8 60 11 60 30 0 18 -6 19 -15 4z"></path>
<path d="M3153 2403 c-4 -9 -1 -19 5 -21 8 -2 9 -9 2 -22 -6 -10 -6 -21 -2
-24 14 -9 35 40 27 63 -8 25 -23 27 -32 4z"></path>
<path d="M2220 2373 c0 -14 43 -74 60 -83 29 -16 31 0 2 26 -15 13 -21 24 -14
24 23 0 12 18 -18 29 -16 5 -30 7 -30 4z"></path>
<path d="M1733 2355 c-9 -24 0 -25 27 -5 l25 20 -23 0 c-12 0 -25 -7 -29 -15z"></path>
<path d="M1181 2329 c-93 -20 -188 -58 -163 -67 7 -2 43 3 80 12 37 9 83 18
102 19 19 2 46 9 59 16 28 15 126 10 143 -7 9 -9 -5 -12 -60 -12 -50 0 -80 -5
-97 -16 -37 -24 -31 -37 15 -29 32 5 45 3 66 -14 15 -12 32 -21 39 -21 16 0
75 -54 75 -69 0 -8 33 -11 105 -9 88 2 108 0 122 -15 16 -16 12 -17 -73 -17
-66 0 -95 -4 -110 -15 -18 -14 -14 -16 46 -14 93 2 106 1 95 -10 -6 -6 -34
-11 -64 -13 -34 -2 -56 -8 -59 -16 -3 -10 12 -12 71 -6 46 4 77 3 80 -3 4 -7
-30 -12 -91 -16 -96 -5 -97 -5 -119 22 -12 14 -22 21 -23 14 0 -7 20 -35 45
-63 25 -28 45 -54 45 -58 0 -5 16 -25 35 -47 l35 -38 83 6 c45 4 93 10 107 14
l25 7 -30 6 c-16 3 -60 1 -97 -4 -68 -9 -98 -5 -98 14 0 6 25 10 60 10 79 0
211 20 204 31 -3 5 -24 10 -47 11 l-42 1 38 4 c47 5 44 27 -4 30 -62 3 -65 4
-44 13 26 11 146 12 164 1 11 -7 9 -10 -8 -16 -24 -7 -28 -25 -6 -25 23 0 18
-11 -24 -57 -33 -36 -45 -43 -77 -43 -22 -1 -52 -7 -69 -15 -29 -13 -29 -13
-6 -14 34 -1 19 -13 -26 -20 -21 -4 -37 -11 -36 -16 4 -18 92 -28 134 -16 36
11 54 31 27 31 -6 0 -9 3 -5 6 6 7 63 -31 87 -57 16 -18 154 -54 252 -65 32
-4 55 -10 53 -14 -3 -4 -24 -5 -49 -3 -24 3 -52 0 -62 -6 -15 -8 4 -10 79 -11
63 0 96 -4 92 -10 -3 -5 -21 -10 -38 -10 -36 0 -65 -15 -54 -26 4 -5 29 -2 55
5 82 23 101 24 57 2 l-40 -19 75 0 c41 -1 84 3 95 8 19 8 19 9 -3 9 -30 1 -38
25 -17 57 22 34 11 43 -18 16 -33 -31 -56 -28 -117 18 -51 38 -55 39 -110 33
-72 -7 -124 15 -200 84 l-55 51 28 30 c16 16 44 38 63 48 33 18 44 34 24 34
-17 0 -11 26 11 46 26 24 52 72 46 87 -2 7 -13 -3 -23 -22 -31 -55 -64 -91
-85 -91 -25 0 -24 11 2 44 27 35 18 44 -17 17 -15 -11 -31 -21 -36 -21 -13 0
-68 42 -68 53 0 5 16 32 36 59 20 27 34 51 31 54 -3 4 -18 -12 -34 -34 -34
-50 -51 -58 -69 -35 -26 33 -27 61 -4 93 19 27 20 30 4 30 -15 0 -14 4 6 25
17 18 20 25 9 25 -9 0 -25 -11 -37 -25 -38 -43 -57 -30 -22 15 26 33 25 42 -4
34 -13 -3 -34 -1 -45 6 -26 13 -29 -6 -6 -36 32 -42 24 -44 -147 -44 -90 0
-170 5 -178 10 -10 7 25 10 110 10 113 1 123 2 100 15 -14 8 -46 14 -72 15
-27 0 -48 4 -48 10 0 5 -13 16 -30 25 -39 20 -133 18 -249 -6z m403 -108 c14
-22 -146 -28 -164 -6 -11 13 -2 15 73 15 47 0 88 -4 91 -9z m186 -1 c0 -12
-28 -25 -36 -17 -9 9 6 27 22 27 8 0 14 -5 14 -10z m-151 -42 c134 -23 92 -35
-79 -21 -81 6 -83 7 -55 19 38 16 52 17 134 2z m105 -54 c9 -3 16 -14 16 -23
0 -9 5 -22 11 -28 9 -9 6 -13 -14 -18 -33 -9 -59 -3 -65 13 -2 7 5 12 17 12
18 0 20 4 15 25 -7 27 -5 28 20 19z m121 -84 c8 -13 -55 -40 -93 -40 -15 0
-37 7 -48 15 -18 13 -16 14 21 16 22 0 51 5 65 9 36 11 48 11 55 0z m-159 -65
c17 -13 9 -14 -78 -15 -142 0 -127 22 18 28 22 1 49 -4 60 -13z m26 -47 c-16
-16 -182 -25 -182 -10 0 17 20 20 110 21 67 1 82 -2 72 -11z"></path>
<path d="M1990 2336 c0 -7 -12 -21 -26 -31 -36 -23 -24 -28 22 -9 40 17 56 32
48 46 -9 14 -44 9 -44 -6z"></path>
<path d="M1860 2315 c-16 -17 -19 -25 -9 -25 19 1 49 24 49 39 0 18 -15 13
-40 -14z"></path>
<path d="M3172 2328 c-15 -15 -16 -112 -2 -103 17 10 11 -11 -10 -38 -11 -14
-20 -31 -20 -39 1 -8 6 -6 15 6 16 22 20 14 6 -12 -15 -30 -22 -72 -11 -72 5
0 12 12 16 28 3 15 17 55 30 90 27 69 30 87 13 76 -8 -4 -9 3 -5 23 8 35 -12
61 -32 41z"></path>
<path d="M5020 2271 c0 -43 19 -68 38 -49 23 23 6 88 -23 88 -11 0 -15 -11
-15 -39z"></path>
<path d="M1969 2260 c-30 -34 -17 -40 21 -10 14 11 31 20 38 20 6 0 12 5 12
10 0 21 -46 8 -71 -20z"></path>
<path d="M2200 2280 c0 -5 -7 -10 -15 -10 -11 0 -15 -11 -15 -37 0 -21 -7 -50
-14 -65 -8 -16 -11 -28 -6 -28 21 0 40 14 40 30 0 9 9 25 20 35 12 10 18 25
16 32 -3 7 -1 13 4 13 16 0 11 27 -6 34 -21 8 -24 8 -24 -4z"></path>
<path d="M1876 2261 c-11 -12 -16 -24 -12 -28 9 -9 39 22 34 37 -2 7 -10 4
-22 -9z"></path>
<path d="M1170 2240 c0 -13 50 -50 68 -50 12 0 12 3 2 15 -16 19 -70 46 -70
35z"></path>
<path d="M2012 2216 c-46 -42 -54 -61 -20 -50 22 7 22 6 4 -21 -10 -15 -14
-30 -11 -33 4 -4 15 4 24 18 9 13 24 33 34 42 14 15 14 18 2 18 -20 0 -19 10
1 25 9 6 15 18 12 25 -3 9 -17 1 -46 -24z"></path>
<path d="M2295 2200 c3 -5 16 -10 28 -10 18 0 19 2 7 10 -20 13 -43 13 -35 0z"></path>
<path d="M2840 2169 c0 -14 -11 -40 -25 -59 -14 -19 -25 -40 -25 -47 0 -7 -11
-13 -24 -13 -27 0 -42 -15 -26 -25 5 -3 20 -1 32 6 19 10 24 9 33 -6 32 -55
35 -56 94 -37 29 10 60 27 67 37 17 23 10 32 -11 15 -13 -11 -15 -4 -15 54 0
75 -14 81 -24 11 -8 -51 -26 -70 -26 -28 -1 15 -12 48 -25 73 -21 39 -24 42
-25 19z m18 -101 c-4 -45 -38 -53 -38 -10 0 27 9 39 33 41 5 1 7 -14 5 -31z"></path>
<path d="M5080 2185 c-2 -66 -63 -370 -86 -430 -4 -8 -2 -15 4 -15 12 0 32 54
32 85 0 13 12 48 26 79 31 69 56 258 36 278 -7 7 -12 8 -12 3z"></path>
<path d="M5018 2145 c6 -50 22 -54 22 -6 0 27 -4 41 -13 41 -9 0 -12 -11 -9
-35z"></path>
<path d="M1908 2153 c-23 -28 -30 -43 -19 -43 12 0 46 48 39 55 -3 3 -12 -3
-20 -12z"></path>
<path d="M2260 2152 c0 -14 46 -31 60 -22 10 6 8 11 -8 19 -24 13 -52 14 -52
3z"></path>
<path d="M2630 2140 c0 -6 7 -22 16 -36 20 -30 10 -46 -11 -18 -14 18 -14 18
-15 -4 0 -12 7 -25 15 -28 8 -4 15 -10 15 -15 0 -5 -7 -9 -15 -9 -21 0 -19
-17 5 -30 11 -6 20 -16 20 -22 0 -6 -10 -4 -25 6 -31 21 -51 21 -31 0 20 -19
11 -40 -10 -23 -8 6 -14 8 -14 4 0 -4 8 -14 18 -22 15 -13 13 -14 -21 -8 -46
7 -43 -10 3 -20 48 -10 45 -25 -4 -25 -52 0 -61 -15 -16 -25 17 -4 27 -11 24
-17 -4 -6 1 -8 12 -4 11 3 26 1 34 -4 13 -8 13 -9 0 -14 -42 -13 -41 -15 5
-14 33 1 60 -5 78 -16 37 -25 34 -9 -7 34 -35 36 -55 80 -37 80 6 0 8 7 5 15
-4 8 -2 15 3 15 5 0 8 18 6 39 -1 31 2 40 18 44 24 7 24 26 -2 57 -14 16 -19
19 -15 8 3 -10 1 -18 -4 -18 -4 0 -14 16 -20 35 -11 34 -30 56 -30 35z"></path>
<path d="M3232 2110 c-7 -31 -7 -40 1 -37 18 6 33 55 20 68 -7 7 -13 -2 -21
-31z"></path>
<path d="M1916 2098 c-3 -13 -6 -27 -6 -33 1 -15 30 27 30 42 0 22 -17 15 -24
-9z"></path>
<path d="M2150 2116 c0 -10 28 -13 41 -5 10 6 7 9 -13 9 -16 0 -28 -2 -28 -4z"></path>
<path d="M2250 2093 c0 -8 13 -13 36 -13 41 0 38 16 -6 22 -20 3 -30 0 -30 -9z"></path>
<path d="M2117 2060 c-6 -49 1 -80 19 -80 21 0 27 20 8 27 -15 5 -13 10 12 30
l29 23 -30 1 c-29 0 -29 1 -7 11 29 14 28 28 -2 28 -20 0 -24 -6 -29 -40z"></path>
<path d="M4949 2083 c-3 -21 4 -59 12 -67 5 -6 9 4 9 26 0 20 -4 40 -10 43 -5
3 -10 3 -11 -2z"></path>
<path d="M3237 2059 c-9 -6 -22 -20 -28 -32 l-12 -22 22 20 c19 16 24 17 31 5
6 -8 10 -20 10 -26 0 -5 16 -25 35 -44 19 -19 35 -41 35 -49 0 -24 107 -124
125 -117 9 3 15 -1 15 -10 0 -16 -5 -16 -70 1 -8 2 -25 -10 -38 -26 l-24 -29
30 0 c16 0 32 3 35 6 4 4 33 8 64 9 58 1 113 20 120 41 2 6 -9 17 -25 23 -17
7 -42 26 -58 42 -15 16 -33 29 -40 29 -31 0 -106 42 -121 68 -9 16 -29 36 -45
45 -19 11 -28 24 -28 41 0 30 -10 38 -33 25z m164 -169 c5 0 9 -4 9 -10 0 -16
-26 -12 -41 7 -12 15 -12 16 4 10 10 -4 23 -7 28 -7z"></path>
<path d="M2235 2051 c-9 -16 43 -37 62 -25 8 5 15 14 16 19 3 14 -69 19 -78 6z"></path>
<path d="M4995 2048 c-2 -7 -33 -119 -69 -249 -36 -130 -86 -300 -111 -378
-26 -79 -44 -145 -42 -148 16 -15 50 61 114 254 107 322 156 533 124 533 -6 0
-14 -6 -16 -12z"></path>
<path d="M4896 2041 c-4 -6 1 -28 11 -48 l18 -38 3 34 c4 36 -20 73 -32 52z"></path>
<path d="M1250 2001 c0 -13 55 -53 107 -80 24 -12 54 -39 69 -60 24 -37 54
-60 54 -43 0 22 -59 83 -131 134 -81 58 -99 67 -99 49z"></path>
<path d="M2043 2003 c-19 -7 -16 -53 3 -53 11 0 14 6 9 20 -4 11 -2 20 4 20 6
0 11 5 11 10 0 11 -7 12 -27 3z"></path>
<path d="M2219 1993 c-16 -2 -29 -12 -32 -24 -4 -14 -14 -19 -36 -19 -17 0
-31 -5 -31 -11 0 -8 11 -9 33 -4 17 4 43 9 57 10 34 4 100 33 100 45 0 10 -39
11 -91 3z"></path>
<path d="M4840 1977 c0 -13 7 -30 16 -38 14 -11 15 -9 12 21 -4 39 -28 54 -28
17z"></path>
<path d="M3192 1978 c-14 -14 -16 -48 -2 -48 5 0 14 9 21 21 13 25 -1 45 -19
27z"></path>
<path d="M2736 1971 c5 -4 35 -22 67 -40 44 -24 56 -27 48 -14 -23 40 -38 50
-80 56 -24 3 -40 2 -35 -2z"></path>
<path d="M3050 1951 c0 -11 39 -25 47 -18 3 3 2 10 -2 16 -8 13 -45 15 -45 2z"></path>
<path d="M1444 1925 c28 -43 89 -115 94 -111 10 11 -34 77 -71 107 l-42 34 19
-30z"></path>
<path d="M3208 1924 c-9 -19 -9 -27 0 -33 6 -3 18 -23 27 -44 8 -20 20 -37 25
-37 14 0 12 15 -5 57 -8 19 -15 46 -15 59 0 32 -17 31 -32 -2z"></path>
<path d="M4810 1925 c0 -17 5 -25 13 -22 6 2 12 12 12 22 0 10 -6 20 -12 23
-8 2 -13 -6 -13 -23z"></path>
<path d="M2020 1913 c-35 -15 -35 -15 -11 -24 24 -9 61 -4 61 9 -1 25 -17 30
-50 15z"></path>
<path d="M2229 1910 l-24 -19 23 -1 c23 0 30 -14 12 -25 -17 -10 -11 -22 13
-29 l22 -7 -25 -10 -25 -11 23 -9 c13 -5 22 -17 22 -29 0 -25 35 -23 62 3 25
24 23 41 -3 27 -27 -15 -36 -6 -15 15 18 18 22 40 5 30 -15 -10 -61 4 -54 15
3 6 16 10 29 10 12 0 31 7 42 16 18 15 17 15 -18 10 -42 -5 -47 0 -20 20 15
12 14 13 -14 14 -18 0 -42 -9 -55 -20z"></path>
<path d="M2990 1913 c0 -11 7 -28 15 -39 14 -18 15 -17 13 15 -3 36 -28 57
-28 24z"></path>
<path d="M2114 1909 c-4 -7 1 -16 10 -21 9 -5 16 -15 16 -23 0 -12 -10 -13
-47 -9 l-48 6 21 -21 c11 -12 36 -24 56 -27 34 -6 36 -5 42 30 4 20 4 46 1 56
-7 22 -40 27 -51 9z"></path>
<path d="M4895 1863 c-17 -116 -89 -352 -147 -486 -16 -38 -27 -71 -24 -74 10
-10 62 118 101 247 21 69 46 139 56 156 11 17 19 48 19 67 0 20 7 52 16 71 16
33 14 66 -5 66 -5 0 -12 -21 -16 -47z"></path>
<path d="M2954 1865 c-10 -20 -8 -24 14 -34 23 -11 24 -10 17 16 -9 40 -18 45
-31 18z"></path>
<path d="M3066 1863 c-9 -21 -9 -21 27 -38 20 -9 44 -33 58 -58 20 -35 24 -56
24 -123 0 -68 2 -79 13 -65 11 14 11 12 6 -11 -6 -29 23 -68 51 -68 20 0 19
10 -2 26 -17 13 -17 13 3 14 11 0 25 -5 32 -12 9 -9 12 -9 12 0 0 6 -10 17
-22 23 -33 17 -33 18 -12 34 15 12 16 16 6 23 -11 8 -12 13 -1 30 24 38 -94
207 -162 231 -22 7 -29 6 -33 -6z"></path>
<path d="M4617 1843 c-19 -35 -22 -63 -7 -63 15 0 31 39 28 68 l-3 27 -18 -32z"></path>
<path d="M4823 1770 c-23 -58 -55 -152 -73 -210 -17 -58 -42 -128 -56 -156
-13 -28 -24 -61 -24 -74 0 -22 1 -22 18 -7 10 10 28 38 39 65 27 59 93 271 93
294 0 10 11 52 26 94 39 116 23 112 -23 -6z"></path>
<path d="M4788 1845 c-3 -6 -33 -95 -68 -200 -82 -251 -115 -328 -142 -340
-11 -6 -25 -21 -30 -35 -9 -24 -9 -24 22 5 75 72 144 220 196 424 31 119 39
175 22 146z"></path>
<path d="M4543 1818 c-16 -17 -23 -37 -23 -65 0 -49 -31 -149 -68 -220 -29
-54 -132 -184 -194 -244 -39 -37 -46 -49 -28 -49 22 0 95 79 179 194 68 94 91
133 101 176 7 30 24 88 37 129 29 90 28 113 -4 79z"></path>
<path d="M4697 1710 c-26 -96 -33 -140 -21 -127 12 11 62 217 55 221 -4 3 -20
-39 -34 -94z"></path>
<path d="M4457 1778 c-12 -18 -16 -35 -12 -49 7 -22 8 -22 22 5 8 15 13 37 11
49 -3 21 -4 21 -21 -5z"></path>
<path d="M2840 1754 c0 -9 5 -14 12 -12 18 6 21 28 4 28 -9 0 -16 -7 -16 -16z"></path>
<path d="M2334 1750 c-29 -11 -40 -30 -24 -40 7 -4 10 -12 6 -18 -3 -6 -2 -13
3 -16 10 -6 71 58 71 74 0 12 -27 12 -56 0z"></path>
<path d="M4398 1754 c-5 -4 -8 -23 -8 -43 1 -30 2 -33 11 -18 11 19 8 73 -3
61z"></path>
<path d="M4631 1720 c-37 -141 -115 -319 -180 -413 -17 -25 -31 -48 -31 -51 0
-17 32 -2 55 25 32 38 42 32 20 -11 -34 -66 -4 -39 54 49 38 58 63 109 70 142
7 31 20 58 34 70 12 10 17 18 10 19 -6 0 -14 -6 -17 -12 -3 -7 -4 1 -1 17 3
17 8 48 10 70 l5 40 -13 -40 c-17 -49 -37 -88 -43 -82 -3 2 7 45 22 95 14 50
24 99 22 109 -3 11 -9 1 -17 -27z"></path>
<path d="M2892 1680 c1 -27 6 -50 10 -50 4 0 8 -6 8 -14 0 -12 4 -12 30 0 23
12 30 22 30 45 0 31 -17 40 -26 14 -9 -23 -26 -18 -19 5 7 21 -9 50 -26 50 -5
0 -8 -22 -7 -50z"></path>
<path d="M2552 1683 c-1 -18 -6 -42 -12 -53 -15 -28 -1 -26 67 10 63 34 81 37
89 15 9 -24 24 -18 24 10 0 32 -21 42 -101 47 l-66 4 -1 -33z"></path>
<path d="M2757 1668 c8 -29 17 -56 19 -60 11 -18 -20 -17 -50 1 -44 28 -59 26
-99 -9 -21 -18 -54 -34 -85 -40 -54 -12 -92 -40 -54 -40 11 0 39 7 63 15 29
11 46 12 53 5 7 -7 3 -10 -11 -10 -12 0 -25 -5 -29 -11 -4 -7 0 -9 12 -6 30 9
147 39 172 44 26 6 126 -57 208 -131 40 -35 60 -46 85 -46 58 0 79 11 99 51
24 47 27 114 5 106 -8 -4 -17 -2 -20 3 -14 22 -38 7 -67 -40 -42 -68 -62 -67
-36 3 25 66 34 77 65 77 15 0 23 5 20 13 -2 7 -22 12 -51 12 l-48 1 -31 -63
c-17 -35 -37 -63 -45 -63 -7 0 -35 20 -61 45 -43 40 -78 100 -104 178 -4 9
-11 17 -16 17 -6 0 -3 -22 6 -52z m-47 -88 c-20 -13 -43 -13 -35 0 3 6 16 10
28 10 18 0 19 -2 7 -10z"></path>
<path d="M4566 1652 c-11 -37 -29 -80 -41 -97 -12 -16 -40 -64 -61 -105 -22
-42 -60 -95 -86 -121 -55 -53 -64 -78 -19 -55 48 25 98 94 155 211 66 135 94
211 80 225 -6 6 -16 -14 -28 -58z"></path>
<path d="M4335 1690 c-7 -12 2 -30 16 -30 12 0 12 27 0 35 -5 3 -12 1 -16 -5z"></path>
<path d="M4955 1657 c-7 -18 -25 -80 -40 -137 -14 -56 -34 -119 -44 -139 -10
-20 -21 -49 -25 -66 l-7 -30 20 20 c12 12 27 50 37 90 9 39 28 104 44 145 28
77 46 150 35 150 -3 0 -12 -15 -20 -33z"></path>
<path d="M2400 1645 c-7 -9 -10 -18 -7 -22 8 -7 37 15 37 28 0 14 -16 11 -30
-6z"></path>
<path d="M4417 1587 c-36 -80 -122 -197 -145 -197 -10 0 -31 -14 -48 -31 -16
-17 -46 -42 -67 -56 -37 -23 -55 -48 -44 -59 13 -13 71 32 174 133 105 104
141 155 163 233 16 54 -6 40 -33 -23z"></path>
<path d="M2970 1612 c-13 -10 -21 -24 -19 -31 3 -7 14 0 27 18 26 35 24 39 -8
13z"></path>
<path d="M4272 1599 c-14 -22 -16 -49 -3 -49 12 0 32 58 22 64 -4 3 -12 -4
-19 -15z"></path>
<path d="M3330 1583 c0 -18 2 -33 4 -33 9 0 13 39 5 51 -6 10 -9 4 -9 -18z"></path>
<path d="M4335 1558 c-15 -29 -36 -68 -47 -85 -15 -26 -16 -32 -5 -27 21 8 62
71 77 117 18 57 6 55 -25 -5z"></path>
<path d="M2418 1564 c-26 -8 -50 -19 -53 -24 -9 -15 47 -12 81 3 16 8 40 19
54 25 l25 11 -30 0 c-16 0 -51 -7 -77 -15z"></path>
<path d="M2710 1527 l-25 -11 29 -4 c17 -2 35 3 44 12 15 15 15 16 -3 15 -11
0 -31 -5 -45 -12z"></path>
<path d="M45 1520 c-12 -4 -27 -15 -35 -24 -12 -16 -6 -17 86 -10 79 5 112 3
156 -10 61 -17 115 -20 136 -7 12 7 -44 26 -158 51 -54 11 -157 12 -185 0z"></path>
<path d="M2752 1493 c-12 -2 -20 -9 -17 -14 10 -15 71 -10 85 6 11 13 8 15
-16 14 -16 -1 -39 -4 -52 -6z"></path>
<path d="M420 1459 c0 -21 23 -55 59 -87 29 -27 32 -32 14 -27 -13 4 -23 4
-23 0 0 -3 41 -46 90 -96 50 -49 90 -86 90 -81 0 4 -5 13 -11 19 -24 24 11 20
59 -8 57 -32 66 -49 26 -49 -35 0 -27 -21 19 -43 24 -12 34 -23 30 -33 -13
-35 -85 15 -172 121 -64 77 -117 122 -129 110 -4 -4 15 -26 42 -49 41 -37 48
-47 43 -68 -5 -17 -2 -28 6 -31 6 -3 52 -34 100 -71 71 -53 97 -67 138 -72 27
-4 49 -11 49 -17 0 -19 51 -77 81 -93 43 -22 48 -10 9 23 -38 31 -65 88 -74
153 -7 46 -7 46 -105 104 -55 31 -118 74 -141 93 -35 30 -41 41 -36 63 6 30
-11 50 -74 88 -19 11 -41 30 -48 41 -13 22 -42 29 -42 10z m167 -194 c19 -19
30 -35 25 -35 -4 0 -23 16 -42 35 -19 19 -30 35 -25 35 4 0 23 -16 42 -35z"></path>
<path d="M2802 1463 c-41 -5 -37 -27 6 -31 22 -2 29 -7 25 -18 -5 -15 5 -18
31 -8 10 4 16 18 16 35 0 31 -1 31 -78 22z"></path>
<path d="M2880 1390 c20 -13 50 -13 50 0 0 6 -15 10 -32 10 -25 0 -29 -3 -18
-10z"></path>
<path d="M3760 1257 c0 -19 56 -67 77 -67 14 0 13 3 -3 21 -10 12 -31 30 -46
41 -23 16 -28 16 -28 5z"></path>
<path d="M4611 1254 c-19 -8 -32 -16 -30 -17 2 -2 36 -1 74 2 62 5 68 7 48 19
-28 16 -50 15 -92 -4z"></path>
<path d="M4823 1245 c-3 -8 -16 -15 -28 -15 -13 0 -27 -4 -30 -10 -4 -6 12
-10 40 -10 55 0 73 -9 145 -70 56 -48 98 -75 106 -67 2 2 -33 40 -79 84 -86
83 -143 115 -154 88z"></path>
<path d="M4370 1210 c-11 -7 -4 -10 28 -10 23 0 42 5 42 10 0 13 -50 13 -70 0z"></path>
<path d="M434 1182 c5 -9 190 -137 226 -157 40 -22 -63 73 -120 110 -66 43
-118 66 -106 47z"></path>
<path d="M4462 1179 c-19 -4 -38 -11 -44 -17 -12 -12 82 -4 95 8 13 12 -15 17
-51 9z"></path>
<path d="M3770 1175 c0 -39 119 -185 150 -185 18 0 10 18 -21 47 -17 15 -37
45 -46 66 -8 20 -27 46 -41 57 -24 19 -42 26 -42 15z"></path>
<path d="M3710 1123 c0 -13 45 -72 67 -88 10 -8 27 -15 37 -15 17 0 15 6 -15
36 -41 43 -89 79 -89 67z"></path>
<path d="M432 1108 c9 -30 309 -191 325 -175 6 7 -304 187 -321 187 -4 0 -6
-6 -4 -12z"></path>
<path d="M4206 1111 c19 -19 85 -30 105 -18 14 9 26 9 51 -2 51 -20 78 -25 78
-12 0 6 -10 11 -22 11 -13 1 -34 7 -48 15 -28 16 -181 21 -164 6z"></path>
<path d="M3670 1059 c0 -19 -4 -20 -41 -14 -36 6 -41 5 -46 -15 -4 -17 -10
-20 -27 -15 -56 19 -105 17 -145 -6 -23 -12 -41 -26 -41 -30 0 -19 23 -19 56
2 32 19 44 21 109 15 69 -6 74 -5 80 15 7 22 26 22 93 3 29 -8 30 18 2 46 -26
26 -40 25 -40 -1z"></path>
<path d="M4494 1045 c-3 -8 -3 -19 1 -25 11 -18 25 -11 25 15 0 27 -17 34 -26
10z"></path>
<path d="M5066 1035 c-3 -13 -9 -53 -12 -87 -3 -35 -8 -70 -10 -78 -11 -33
-24 17 -24 93 0 76 -9 94 -29 60 -9 -16 -10 -16 -11 5 0 12 -4 22 -10 22 -18
0 -30 -38 -30 -94 0 -36 -5 -60 -16 -70 -14 -15 -13 -16 15 -16 29 0 31 3 31
35 0 53 18 42 26 -15 6 -49 8 -50 44 -56 25 -4 37 -11 36 -21 0 -9 4 -18 10
-20 15 -5 44 101 44 161 0 47 -13 84 -34 98 -18 12 -24 9 -30 -17z"></path>
<path d="M3988 1033 c-10 -2 -18 -9 -18 -14 0 -12 117 -12 124 0 11 16 -61 26
-106 14z"></path>
<path d="M4557 1033 c-4 -3 -7 -15 -7 -25 0 -26 24 -17 28 10 3 21 -8 29 -21
15z"></path>
<path d="M4602 1028 c-14 -14 -16 -58 -3 -58 12 0 16 8 25 43 7 29 -2 35 -22
15z"></path>
<path d="M4876 1004 c-3 -9 -6 -36 -6 -61 0 -39 2 -44 15 -33 9 8 15 29 15 56
0 44 -13 66 -24 38z"></path>
<path d="M4665 973 c-3 -15 -11 -34 -17 -40 -18 -22 -91 -15 -234 22 -75 20
-144 35 -153 33 -8 -2 30 -20 84 -40 133 -49 135 -49 213 -50 37 0 82 -6 101
-14 18 -8 45 -14 58 -14 22 0 24 2 13 15 -7 8 -20 15 -30 15 -26 0 -29 8 -18
47 6 22 6 39 0 45 -6 6 -12 -1 -17 -19z"></path>
<path d="M500 985 c0 -23 189 -106 239 -105 21 1 -109 67 -178 91 -60 21 -61
21 -61 14z"></path>
<path d="M4747 983 c-4 -3 -7 -15 -7 -25 0 -26 24 -17 28 10 3 21 -8 29 -21
15z"></path>
<path d="M4805 969 c-5 -13 -1 -27 9 -37 14 -14 16 -13 24 9 5 13 7 30 5 37
-8 19 -31 14 -38 -9z"></path>
<path d="M3237 963 c-10 -9 25 -63 40 -63 11 0 10 6 -2 29 -16 33 -29 44 -38
34z"></path>
<path d="M608 871 c12 -11 52 -29 87 -41 71 -24 85 -35 30 -24 -21 4 -35 2
-35 -4 0 -16 49 -31 131 -42 41 -5 87 -14 102 -19 15 -6 33 -8 40 -5 8 3 20
-2 27 -11 19 -23 32 -18 28 12 -4 38 -39 53 -124 53 -62 0 -73 3 -94 25 -22
24 -101 54 -180 69 l-35 7 23 -20z"></path>
<path d="M1010 853 c0 -5 11 -26 25 -48 13 -22 33 -56 43 -75 33 -58 54 -71
138 -81 42 -6 85 -14 95 -19 25 -14 109 -1 102 15 -8 23 -64 39 -162 44 -65 4
-95 10 -94 18 1 6 -13 23 -32 37 -19 15 -48 47 -65 71 -28 41 -50 57 -50 38z"></path>
<path d="M4974 785 c11 -8 33 -15 49 -15 16 0 41 -8 55 -18 38 -26 75 -39 172
-57 102 -20 174 -50 199 -81 10 -13 25 -45 32 -70 10 -35 23 -53 49 -69 19
-13 48 -37 64 -54 17 -17 36 -31 43 -31 23 0 14 -16 -15 -25 -92 -32 -181 -71
-178 -80 2 -5 26 -9 55 -9 39 1 51 -2 51 -13 0 -9 6 -13 15 -9 8 3 52 13 98
23 66 15 127 18 312 17 245 0 358 -16 490 -65 49 -18 55 -23 55 -50 0 -25 4
-29 29 -29 23 0 31 -6 41 -31 16 -37 36 -59 56 -59 35 0 -72 137 -141 180 -29
18 -131 41 -335 76 -47 8 -148 17 -225 21 -124 5 -150 3 -228 -17 -62 -16 -91
-19 -100 -12 -8 7 -18 7 -27 2 -23 -15 -34 -12 -20 5 7 8 42 24 78 35 58 17
68 17 75 5 10 -19 37 -20 37 -1 0 19 -19 33 -69 51 -65 23 -141 95 -176 167
-34 71 -69 99 -148 121 -29 8 -126 35 -217 61 -177 50 -208 55 -176 31z"></path>
<path d="M5346 554 c-7 -19 11 -84 23 -84 4 0 16 9 26 21 18 19 18 22 3 47
-20 32 -43 39 -52 16z"></path>
<path d="M5420 557 c0 -19 30 -58 41 -52 16 11 9 32 -16 49 -19 12 -25 13 -25
3z"></path>
<path d="M5302 486 c2 -15 8 -26 13 -26 15 0 12 43 -3 48 -10 3 -13 -4 -10
-22z"></path>
<path d="M5213 453 c-16 -6 -5 -33 13 -33 8 0 14 6 14 14 0 18 -11 25 -27 19z"></path>
<path d="M6420 133 c1 -31 21 -63 39 -63 17 0 12 43 -8 68 -25 29 -31 28 -31
-5z"></path>
<path d="M6366 133 c-3 -4 -6 -16 -6 -28 0 -18 -7 -24 -38 -28 -44 -8 -122
-77 -86 -77 11 0 31 14 46 30 20 23 35 30 65 30 50 0 62 9 56 42 -5 26 -25 43
-37 31z"></path>
<path d="M6490 113 c0 -5 4 -15 10 -23 11 -18 25 -7 17 15 -6 15 -27 21 -27 8z"></path>
</g>
</svg>